<svg xmlns="http://www.w3.org/2000/svg" xmlns:xlink="http://www.w3.org/1999/xlink" viewBox="0 0 3000 1500"><defs><linearGradient id="c" x1="984" x2="984" y1="1225.23" y2="15.29" gradientTransform="rotate(-14 870.547 131.106)" gradientUnits="userSpaceOnUse"><stop offset=".01"/><stop offset="1" stop-color="#fff"/></linearGradient><linearGradient id="y" x1="6130.13" x2="6130.13" y1="2576.68" y2="1366.74" gradientTransform="rotate(-14 -985.686 15599.718)" xlink:href="#c"/><linearGradient id="l" x1="2357.08" x2="2357.08" y1="1595.13" y2="385.19" gradientTransform="matrix(-.97 -.25 -.25 .97 4313.06 221.57)" xlink:href="#c"/><linearGradient id="p" x1="1610.46" x2="1610.46" y1="1399.05" y2="189.12" gradientTransform="matrix(-.97 -.25 -.25 .97 4313.06 221.57)" xlink:href="#c"/><linearGradient id="s" x1="3718.45" x2="3718.45" y1="1960.91" y2="750.97" gradientTransform="matrix(-.97 -.25 -.25 .97 4313.06 221.57)" xlink:href="#c"/><linearGradient id="v" x1="4187.3" x2="4187.3" y1="2066.46" y2="856.52" gradientTransform="rotate(-14 -985.686 15599.718)" xlink:href="#c"/><linearGradient id="C" x1="4003.47" x2="498.48" y1="3347.94" y2="-289.31" gradientUnits="userSpaceOnUse"><stop offset="0" stop-color="#203b89"/><stop offset="1" stop-color="#6c3b89"/></linearGradient><linearGradient id="m" x1="984" x2="984" y1="1225.23" y2="15.29" gradientTransform="rotate(-14 870.547 131.106)" gradientUnits="userSpaceOnUse"><stop offset=".01"/><stop offset="1" stop-color="#bfbfff"/></linearGradient><linearGradient id="G" x1="2357.08" x2="2357.08" y1="1595.13" y2="385.19" gradientTransform="matrix(-.97 -.25 -.25 .97 4313.06 221.57)" xlink:href="#m"/><linearGradient id="I" x1="1610.46" x2="1610.46" y1="1399.05" y2="189.12" gradientTransform="matrix(-.97 -.25 -.25 .97 4313.06 221.57)" xlink:href="#m"/><linearGradient id="K" x1="3718.45" x2="3718.45" y1="1960.91" y2="750.97" gradientTransform="matrix(-.97 -.25 -.25 .97 4313.06 221.57)" xlink:href="#m"/><linearGradient id="M" x1="4187.3" x2="4187.3" y1="2066.46" y2="856.52" gradientTransform="rotate(-14 -985.686 15599.718)" xlink:href="#m"/><linearGradient id="O" x1="6130.13" x2="6130.13" y1="2576.68" y2="1366.74" gradientTransform="rotate(-14 -985.686 15599.718)" xlink:href="#m"/><linearGradient id="z" x1="1423.58" x2="1531.22" y1="1852.41" y2="1140.48" gradientUnits="userSpaceOnUse"><stop offset="0" stop-color="#182d68"/><stop offset="1" stop-color="#522d68"/></linearGradient><linearGradient id="P" x1="859.42" x2="1962.46" y1="53.64" y2="1292.35" xlink:href="#z"/><linearGradient id="A" x1="2399.65" x2="1138.6" y1="1709" y2="400.36" gradientUnits="userSpaceOnUse"><stop offset="0" stop-color="#2e55c5"/><stop offset="1" stop-color="#9b55c5"/></linearGradient><linearGradient id="Q" x1="215.46" x2="1318.5" y1="627.07" y2="1865.78" xlink:href="#z"/><linearGradient id="R" x1="1245.06" x2="-15.99" y1="1709" y2="400.36" xlink:href="#A"/><linearGradient id="S" x1="1504.56" x2="2607.6" y1="-520.84" y2="717.87" xlink:href="#z"/><linearGradient id="T" x1="3556.35" x2="2295.3" y1="1709" y2="400.36" xlink:href="#A"/><linearGradient id="B" x1="255.48" x2="451.64" y1="1141.56" y2="1656.69" gradientUnits="userSpaceOnUse"><stop offset="0" stop-color="#11204a"/><stop offset="1" stop-color="#3a204a"/></linearGradient><linearGradient id="U" x1="1431.34" x2="1627.5" y1="1141.56" y2="1656.69" xlink:href="#B"/><linearGradient id="V" x1="2541.44" x2="2737.6" y1="1141.56" y2="1656.69" xlink:href="#B"/><filter id="a" width="759.27" height="32766" x="781.87" y="-8942" color-interpolation-filters="sRGB" filterUnits="userSpaceOnUse"><feFlood flood-color="#fff" result="bg"/><feBlend in="SourceGraphic" in2="bg"/></filter><filter id="b" width="759.27" height="32766" x="2179.62" y="-8942" color-interpolation-filters="sRGB" filterUnits="userSpaceOnUse"><feFlood flood-color="#fff" result="bg"/><feBlend in="SourceGraphic" in2="bg"/></filter><filter id="d" width="759.27" height="32766" x="1343.27" y="-8942" color-interpolation-filters="sRGB" filterUnits="userSpaceOnUse"><feFlood flood-color="#fff" result="bg"/><feBlend in="SourceGraphic" in2="bg"/></filter><filter id="e" width="759.27" height="32766" x="2115.21" y="-8942" color-interpolation-filters="sRGB" filterUnits="userSpaceOnUse"><feFlood flood-color="#fff" result="bg"/><feBlend in="SourceGraphic" in2="bg"/></filter><filter id="f" width="759.27" height="32766" x="-66.35" y="-8942" color-interpolation-filters="sRGB" filterUnits="userSpaceOnUse"><feFlood flood-color="#fff" result="bg"/><feBlend in="SourceGraphic" in2="bg"/></filter><filter id="g" width="759.27" height="32766" x="170.92" y="-8942" color-interpolation-filters="sRGB" filterUnits="userSpaceOnUse"><feFlood flood-color="#fff" result="bg"/><feBlend in="SourceGraphic" in2="bg"/></filter><filter id="i" width="759.27" height="1188.26" x="781.87" y="-94.26" color-interpolation-filters="sRGB" filterUnits="userSpaceOnUse"><feFlood flood-color="#fff" result="bg"/><feBlend in="SourceGraphic" in2="bg"/></filter><filter id="k" width="759.27" height="1188.26" x="1343.27" y="-85.26" color-interpolation-filters="sRGB" filterUnits="userSpaceOnUse"><feFlood flood-color="#fff" result="bg"/><feBlend in="SourceGraphic" in2="bg"/></filter><filter id="o" width="759.27" height="1188.26" x="2115.21" y="-85.26" color-interpolation-filters="sRGB" filterUnits="userSpaceOnUse"><feFlood flood-color="#fff" result="bg"/><feBlend in="SourceGraphic" in2="bg"/></filter><filter id="r" width="759.27" height="1188.26" x="-66.35" y="-77.26" color-interpolation-filters="sRGB" filterUnits="userSpaceOnUse"><feFlood flood-color="#fff" result="bg"/><feBlend in="SourceGraphic" in2="bg"/></filter><filter id="u" width="759.27" height="1188.26" x="170.92" y="-94.26" color-interpolation-filters="sRGB" filterUnits="userSpaceOnUse"><feFlood flood-color="#fff" result="bg"/><feBlend in="SourceGraphic" in2="bg"/></filter><filter id="x" width="759.27" height="1188.26" x="2179.62" y="-94.26" color-interpolation-filters="sRGB" filterUnits="userSpaceOnUse"><feFlood flood-color="#fff" result="bg"/><feBlend in="SourceGraphic" in2="bg"/></filter><mask id="E" width="759.27" height="1188.26" x="781.87" y="-94.26" maskUnits="userSpaceOnUse"><g filter="url(#i)" mask="url(#h)"><polygon points="1541.13 1094 855.89 -94.26 781.87 -89.7 938.5 1094 1541.13 1094" style="mix-blend-mode:multiply" fill="url(#c)"/></g></mask><mask id="F" width="759.27" height="1188.26" x="1343.27" y="-85.26" maskUnits="userSpaceOnUse"><g filter="url(#k)" mask="url(#j)"><polygon points="1343.27 1103 2028.52 -85.26 2102.54 -80.7 1945.9 1103 1343.27 1103" style="mix-blend-mode:multiply" fill="url(#l)"/></g></mask><mask id="H" width="759.27" height="1188.26" x="2115.21" y="-85.26" maskUnits="userSpaceOnUse"><g filter="url(#o)" mask="url(#n)"><polygon points="2115.21 1103 2800.45 -85.26 2874.48 -80.7 2717.84 1103 2115.21 1103" style="mix-blend-mode:multiply" fill="url(#p)"/></g></mask><mask id="J" width="759.27" height="1188.26" x="-66.35" y="-77.26" maskUnits="userSpaceOnUse"><g filter="url(#r)" mask="url(#q)"><polygon points="-66.35 1111 618.9 -77.26 692.92 -72.7 536.28 1111 -66.35 1111" style="mix-blend-mode:multiply" fill="url(#s)"/></g></mask><mask id="L" width="759.27" height="1188.26" x="170.92" y="-94.26" maskUnits="userSpaceOnUse"><g filter="url(#u)" mask="url(#t)"><polygon points="930.19 1094 244.95 -94.26 170.92 -89.7 327.56 1094 930.19 1094" style="mix-blend-mode:multiply" fill="url(#v)"/></g></mask><mask id="N" width="759.27" height="1188.26" x="2179.62" y="-94.26" maskUnits="userSpaceOnUse"><g filter="url(#x)" mask="url(#w)"><polygon points="2938.89 1094 2253.64 -94.26 2179.62 -89.7 2336.26 1094 2938.89 1094" style="mix-blend-mode:multiply" fill="url(#y)"/></g></mask><clipPath id="D"><rect width="3000" height="1500" fill="none"/></clipPath></defs><g style="isolation:isolate"><rect width="3000" height="1500" fill="url(#C)"/><g clip-path="url(#D)" data-name="Layer 5"><path fill="#2c3059" d="M1750.85,385.36h-45.44l45.44-42.48v-4.65l-48,44.87V328.36h48v-3h-1961v3h45.69l-45.69,42.78v4.65l48-44.93v54.5h-48v3h49.35a1.61,1.61,0,0,0,.37,0,2,2,0,0,0,.35,0H-96.6a1.55,1.55,0,0,0,.37,0,2,2,0,0,0,.35,0h63a1.47,1.47,0,0,0,.36,0,2.2,2.2,0,0,0,.36,0H31.35a1.47,1.47,0,0,0,.36,0,2.2,2.2,0,0,0,.36,0H95.55a1.47,1.47,0,0,0,.36,0,2.2,2.2,0,0,0,.36,0h63.48a1.47,1.47,0,0,0,.36,0,2.2,2.2,0,0,0,.36,0h63.25a1.5,1.5,0,0,0,.37,0,2.09,2.09,0,0,0,.35,0h63.48a1.5,1.5,0,0,0,.37,0,2.09,2.09,0,0,0,.35,0h63.48a1.5,1.5,0,0,0,.37,0,2.09,2.09,0,0,0,.35,0h63.48a1.5,1.5,0,0,0,.37,0,2.09,2.09,0,0,0,.35,0h65.15a1.5,1.5,0,0,0,.37,0,2.09,2.09,0,0,0,.35,0h63.48a1.5,1.5,0,0,0,.37,0,2.09,2.09,0,0,0,.35,0h63a1.47,1.47,0,0,0,.36,0,2.2,2.2,0,0,0,.36,0h63.48a1.47,1.47,0,0,0,.36,0,2.2,2.2,0,0,0,.36,0h63.48a1.47,1.47,0,0,0,.36,0,2.2,2.2,0,0,0,.36,0h63.48a1.47,1.47,0,0,0,.36,0,2.2,2.2,0,0,0,.36,0h63.25a1.47,1.47,0,0,0,.36,0,2.2,2.2,0,0,0,.36,0h63.48a1.47,1.47,0,0,0,.36,0,2.2,2.2,0,0,0,.36,0h63.48a1.47,1.47,0,0,0,.36,0,2.2,2.2,0,0,0,.36,0h63.48a1.47,1.47,0,0,0,.36,0,2.2,2.2,0,0,0,.36,0h63.69a1.5,1.5,0,0,0,.37,0,2.21,2.21,0,0,0,.35,0h63.48a1.47,1.47,0,0,0,.36,0,2.2,2.2,0,0,0,.36,0h63a1.47,1.47,0,0,0,.36,0,2,2,0,0,0,.35,0h63.49a1.47,1.47,0,0,0,.36,0,2,2,0,0,0,.35,0h63.49a1.47,1.47,0,0,0,.36,0,2,2,0,0,0,.35,0h63.49a1.47,1.47,0,0,0,.36,0,2,2,0,0,0,.35,0h63.26a1.47,1.47,0,0,0,.36,0,2.2,2.2,0,0,0,.36,0h63.48a1.47,1.47,0,0,0,.36,0,2.2,2.2,0,0,0,.36,0h63.48a1.47,1.47,0,0,0,.36,0,2.2,2.2,0,0,0,.36,0h63.48a1.47,1.47,0,0,0,.36,0,2.2,2.2,0,0,0,.36,0h49.29Zm-1909-57h58.48l-58.48,54.93Zm60,57h-58.24l58.24-54.7Zm4-57h58.48l-58.48,54.93Zm60,57H-91.93l57.78-54.27Zm4-57H28.33l-58.48,54.93Zm60,57H-28.39l58.24-54.7Zm4-57H92.33L33.85,383.29Zm61,57H36.61l58.24-54.7Zm3-57h58.48L97.85,383.29Zm61,57H100.61l58.24-54.7Zm3-57h58.48l-58.48,54.93Zm61,57h-58l58-54.49Zm3-57h58.48l-58.48,54.93Zm61,57H228.61l58.24-54.7Zm3-57h58.48l-58.48,54.93Zm61,57H292.61l58.24-54.7Zm3-57h58.48l-58.48,54.93Zm61,57H356.61l58.24-54.7Zm4-57h58.48l-58.48,54.93Zm62,57H422.61l58.24-54.7Zm4-57h58.48l-58.48,54.93Zm60,57H486.61l58.24-54.7Zm4-57h58.48l-58.48,54.93Zm60,57H551.07l57.78-54.27Zm3-57h58.48l-58.48,54.93Zm61,57H614.61l58.24-54.7Zm4-57h58.48l-58.48,54.93Zm60,57H678.61l58.24-54.7Zm4-57h58.48l-58.48,54.93Zm61,57H743.61l58.24-54.7Zm3-57h58.48l-58.48,54.93Zm61,57h-58l58-54.49Zm3-57h58.48l-58.48,54.93Zm61,57H871.61l58.24-54.7Zm3-57h58.48l-58.48,54.93Zm61,57H935.61l58.24-54.7Zm3-57h58.48l-58.48,54.93Zm61,57H999.61l58.24-54.7Zm4-57h58.48l-58.48,54.93Zm61,57h-58.24l58.24-54.7Zm3-57h58.48l-58.48,54.93Zm61,57h-58.24l58.24-54.7Zm3-57h58.48l-58.48,54.93Zm61,57h-57.78l57.78-54.27Zm3-57h58.48l-58.48,54.93Zm61,57h-58.24l58.24-54.7Zm3-57h58.48l-58.48,54.93Zm61,57h-58.24l58.24-54.7Zm3-57h58.48l-58.48,54.93Zm61,57h-58.24l58.24-54.7Zm4-57h58.48l-58.48,54.93Zm60,57h-58l58-54.49Zm4-57h58.48l-58.48,54.93Zm60,57h-58.24l58.24-54.7Zm4-57h58.48l-58.48,54.93Zm61,57h-58.24l58.24-54.7Zm3-57h58.48l-58.48,54.93Zm61,57h-58.24l58.24-54.7Z"/><path fill="#2c3059" d="M3676.85,385.36h-45.44l45.44-42.48v-4.65l-48,44.87V328.36h48v-3h-1961v3h45.69l-45.69,42.78v4.65l48-44.93v54.5h-48v3h49.35a1.61,1.61,0,0,0,.37,0,2,2,0,0,0,.35,0h63.48a1.55,1.55,0,0,0,.37,0,2,2,0,0,0,.35,0h63a1.47,1.47,0,0,0,.36,0,2.2,2.2,0,0,0,.36,0h63.48a1.47,1.47,0,0,0,.36,0,2.2,2.2,0,0,0,.36,0h63.48a1.47,1.47,0,0,0,.36,0,2.2,2.2,0,0,0,.36,0h63.48a1.47,1.47,0,0,0,.36,0,2.2,2.2,0,0,0,.36,0h63.25a1.5,1.5,0,0,0,.37,0,2.09,2.09,0,0,0,.35,0h63.48a1.5,1.5,0,0,0,.37,0,2.09,2.09,0,0,0,.35,0h63.48a1.5,1.5,0,0,0,.37,0,2.09,2.09,0,0,0,.35,0h63.48a1.5,1.5,0,0,0,.37,0,2.09,2.09,0,0,0,.35,0h65.15a1.5,1.5,0,0,0,.37,0,2.09,2.09,0,0,0,.35,0h63.48a1.5,1.5,0,0,0,.37,0,2.09,2.09,0,0,0,.35,0h63a1.47,1.47,0,0,0,.36,0,2.2,2.2,0,0,0,.36,0h63.48a1.47,1.47,0,0,0,.36,0,2.2,2.2,0,0,0,.36,0h63.48a1.47,1.47,0,0,0,.36,0,2.2,2.2,0,0,0,.36,0h63.48a1.47,1.47,0,0,0,.36,0,2.2,2.2,0,0,0,.36,0h63.25a1.47,1.47,0,0,0,.36,0,2.2,2.2,0,0,0,.36,0h63.48a1.47,1.47,0,0,0,.36,0,2.2,2.2,0,0,0,.36,0h63.48a1.47,1.47,0,0,0,.36,0,2.2,2.2,0,0,0,.36,0h63.48a1.47,1.47,0,0,0,.36,0,2.2,2.2,0,0,0,.36,0h63.69a1.5,1.5,0,0,0,.37,0,2.21,2.21,0,0,0,.35,0h63.48a1.47,1.47,0,0,0,.36,0,2.2,2.2,0,0,0,.36,0h63a1.47,1.47,0,0,0,.36,0,2,2,0,0,0,.35,0h63.49a1.47,1.47,0,0,0,.36,0,2,2,0,0,0,.35,0h63.49a1.47,1.47,0,0,0,.36,0,2,2,0,0,0,.35,0h63.49a1.47,1.47,0,0,0,.36,0,2,2,0,0,0,.35,0h63.26a1.47,1.47,0,0,0,.36,0,2.2,2.2,0,0,0,.36,0h63.48a1.47,1.47,0,0,0,.36,0,2.2,2.2,0,0,0,.36,0h63.48a1.47,1.47,0,0,0,.36,0,2.2,2.2,0,0,0,.36,0h63.48a1.47,1.47,0,0,0,.36,0,2.2,2.2,0,0,0,.36,0h49.29Zm-1910-57h58.48l-58.48,54.93Zm61,57h-58.24l58.24-54.7Zm3-57h58.48l-58.48,54.93Zm61,57h-57.78l57.78-54.27Zm3-57h58.48l-58.48,54.93Zm61,57h-58.24l58.24-54.7Zm3-57h58.48l-58.48,54.93Zm61,57h-58.24l58.24-54.7Zm4-57h58.48l-58.48,54.93Zm60,57h-58.24l58.24-54.7Zm4-57h58.48l-58.48,54.93Zm60,57h-58l58-54.49Zm4-57h58.48l-58.48,54.93Zm61,57h-58.24l58.24-54.7Zm3-57h58.48l-58.48,54.93Zm61,57h-58.24l58.24-54.7Zm3-57h58.48l-58.48,54.93Zm61,57h-58.24l58.24-54.7Zm3-57h58.48l-58.48,54.93Zm63,57h-58.24l58.24-54.7Zm3-57h58.48l-58.48,54.93Zm61,57h-58.24l58.24-54.7Zm3-57h58.48l-58.48,54.93Zm61,57h-57.78l57.78-54.27Zm3-57h58.48l-58.48,54.93Zm61,57h-58.24l58.24-54.7Zm3-57h58.48l-58.48,54.93Zm61,57h-58.24l58.24-54.7Zm4-57h58.48l-58.48,54.93Zm60,57h-58.24l58.24-54.7Zm4-57h58.48l-58.48,54.93Zm60,57h-58l58-54.49Zm4-57h58.48l-58.48,54.93Zm60,57h-58.24l58.24-54.7Zm4-57h58.48l-58.48,54.93Zm61,57h-58.24l58.24-54.7Zm3-57h58.48l-58.48,54.93Zm61,57h-58.24l58.24-54.7Zm3-57h58.48l-58.48,54.93Zm61,57h-58.24l58.24-54.7Zm4-57h58.48l-58.48,54.93Zm60,57h-58.24l58.24-54.7Zm4-57h58.48l-58.48,54.93Zm60,57h-57.78l57.78-54.27Zm4-57h58.48l-58.48,54.93Zm60,57h-58.24l58.24-54.7Zm4-57h58.48l-58.48,54.93Zm61,57h-58.24l58.24-54.7Zm3-57h58.48l-58.48,54.93Zm61,57h-58.24l58.24-54.7Zm3-57h58.48l-58.48,54.93Zm61,57h-58l58-54.49Zm3-57h58.48l-58.48,54.93Zm61,57h-58.24l58.24-54.7Zm3-57h58.48l-58.48,54.93Zm61,57h-58.24l58.24-54.7Zm4-57h58.48l-58.48,54.93Zm60,57h-58.24l58.24-54.7Z"/><path fill="#2c3059" d="M1750.85,165.36H1583.42l167.43-157v-11h-1961v9H-49.27L-210.15,157v17.32h171c.34.66.68.7,1,.7s.66,0,1-.7H140c.34.66.68.7,1,.7s.66,0,1-.7H317.75c.33.66.67.7,1,.7s.67,0,1-.7H496.81c.33.66.67.7,1,.7s.67,0,1-.7H675.87c.33.66.67.7,1,.7s.67,0,1-.7H854.93c.33.66.67.7,1,.7s.67,0,1-.7h176.43c.33.66.67.7,1,.7s.66,0,1-.7h177.06c.33.66.67.7,1,.7s.66,0,1-.7h177.06c.33.66.67.7,1,.7s.66,0,1-.7h177.06c.33.66.67.7,1,.7s.66,0,1-.7h178.31Zm-1794,0H-205.59L-43.15,12.79Zm10-159H130L-33.15,159.58Zm169,159H-26.59L135.85,12.79Zm10-159H309L145.85,159.58Zm168,159H152.67L313.85,14Zm10-159H487L323.85,159.58Zm169,159H330.41L492.85,12.79Zm10-159H666L502.85,159.58Zm169,159H509.41L671.85,12.79Zm10-159H845L681.85,159.58Zm169,159H688.41L850.85,12.79Zm10-159H1024L860.85,159.58Zm169,159H868l161.81-152Zm9-159H1202L1038.85,159.58Zm170,159H1046.41L1208.85,12.79Zm9-159H1381L1217.85,159.58Zm170,159H1225.41L1387.85,12.79Zm9-159H1560L1396.85,159.58Zm170,159H1404.41L1566.85,12.79Zm9-159H1739L1575.85,159.58Z"/><path fill="#2c3059" d="M3536.85,165.36H3369.26l167.59-157v-11h-1961v9h160.71L1575.85,157v17.32h170.88c.33.66.67.7,1,.7s.67,0,1-.7h177.06c.33.66.67.7,1,.7s.67,0,1-.7h175.79c.34.66.68.7,1,.7s.66,0,1-.7h177c.34.66.68.7,1,.7s.66,0,1-.7h177c.34.66.68.7,1,.7s.66,0,1-.7h177.05c.34.66.68.7,1,.7s.66,0,1-.7h176.42c.34.66.68.7,1,.7s.66,0,1-.7h177.06c.34.66.68.7,1,.7s.67,0,1-.7h177.06c.34.66.68.7,1,.7s.66,0,1-.7h177.06c.34.66.68.7,1,.7s.66,0,1-.7h178.48Zm-1794,0H1580.41L1742.85,12.79Zm10-159H1916L1752.85,159.58Zm169,159H1759.41L1921.85,12.79Zm10-159H2095L1931.85,159.58Zm168,159H1938.67L2099.85,14Zm9-159H2272L2108.85,159.58Zm170,159H2116.41L2278.85,12.79Zm10-159H2452L2288.85,159.58Zm169,159H2295.41L2457.85,12.79Zm10-159H2631L2467.85,159.58Zm169,159H2474.41L2636.85,12.79Zm10-159H2810L2646.85,159.58Zm169,159H2654l161.81-152Zm9-159H2988L2824.85,159.58Zm170,159H2832.41L2994.85,12.79Zm9-159H3167L3003.85,159.58Zm170,159H3011.41L3173.85,12.79Zm9-159H3346L3182.85,159.58Zm170,159H3190.41L3352.85,12.79Zm9-159H3525L3361.85,159.58Z"/><path fill="#2c3059" d="M1750.85,297.36h-8V207.13l8,7.1v-7l-4.33-3.85h4.33v-5h-1961v5h58V293l-58-54.28v7.64l53.81,51h-53.81v5H-150a.75.75,0,0,1,.58-.15.77.77,0,0,1,.59.15H-45a.76.76,0,0,1,.58-.15.8.8,0,0,1,.6.15h103a.76.76,0,0,1,.58-.15.8.8,0,0,1,.6.15H164a.73.73,0,0,1,.57-.15.8.8,0,0,1,.6.15H269.29a.77.77,0,0,1,.58-.15.8.8,0,0,1,.6.15H374.21a.75.75,0,0,1,.58-.15.79.79,0,0,1,.59.15H479.12a.75.75,0,0,1,.58-.15.77.77,0,0,1,.59.15H584a.75.75,0,0,1,.58-.15.8.8,0,0,1,.6.15H688.57a.76.76,0,0,1,.58-.15.8.8,0,0,1,.6.15H793.49a.73.73,0,0,1,.57-.15.8.8,0,0,1,.6.15H898.4a.75.75,0,0,1,.58-.15.79.79,0,0,1,.59.15h103.74a.75.75,0,0,1,.58-.15.77.77,0,0,1,.59.15h103a.75.75,0,0,1,.58-.15.77.77,0,0,1,.59.15h103.74a.76.76,0,0,1,.58-.15.8.8,0,0,1,.6.15H1320a.73.73,0,0,1,.57-.15.8.8,0,0,1,.6.15H1425a.75.75,0,0,1,.58-.15.78.78,0,0,1,.59.15h103.74a.75.75,0,0,1,.58-.15.77.77,0,0,1,.59.15h103.74a.76.76,0,0,1,.58-.15.8.8,0,0,1,.6.15h103.36a.76.76,0,0,1,.58-.15.8.8,0,0,1,.6.15h10.36Zm-1897-1V207L-51,296.36Zm99-3.23-95.58-89.77h95.58Zm5,3.23v-88.7l94.43,88.7Zm99-3.23-95.58-89.77H56.85Zm6,3.23V207L158,296.36Zm99-3.23L66.27,203.36h95.58Zm6,3.23V207L263,296.36Zm99-3.23-95.58-89.77h95.58Zm6,3.23V207L368,296.36Zm99-3.23-95.58-89.77h95.58Zm6,3.23V207L473,296.36Zm99-3.23-95.58-89.77h95.58Zm6,3.23V207L578,296.36Zm99-3.23-95.58-89.77h95.58Zm6,3.23V207.31l94.8,89.05Zm99-3.23-95.58-89.77h95.58Zm5,3.23V207L787,296.36Zm99-3.23-95.58-89.77h95.58Zm6,3.23V207L892,296.36Zm99-3.23-95.58-89.77h95.58Zm6,3.23V207L997,296.36Zm99-3.23-95.58-89.77h95.58Zm6,3.23v-88.7l94.43,88.7Zm98-3.23-95.58-89.77h95.58Zm6,3.23V207L1206,296.36Zm99-3.23-95.58-89.77h95.58Zm6,3.23V207L1311,296.36Zm102-3.23-95.58-89.77h95.58Zm6,3.23V207L1419,296.36Zm99-3.23-95.58-89.77h95.58Zm5,3.23V207L1523,296.36Zm100-3.23-95.58-89.77h95.58Zm5,3.23V207L1628,296.36Zm100-3.23-95.58-89.77h95.58Zm5,3.23V207.31l94.8,89.05Zm99-3.23-95.58-89.77h95.58Z"/><path fill="#2c3059" d="M3639.85,297.36h-8V207.13l8,7.1v-7l-4.33-3.85h4.33v-5h-1961v5h58V293l-58-54.28v7.64l53.91,51h-53.91v5h60.29a.75.75,0,0,1,.58-.15.8.8,0,0,1,.6.15h103.73a.76.76,0,0,1,.58-.15.8.8,0,0,1,.6.15h103a.76.76,0,0,1,.58-.15.8.8,0,0,1,.6.15h103.74a.75.75,0,0,1,.58-.15.79.79,0,0,1,.59.15H2158.4a.73.73,0,0,1,.57-.15.8.8,0,0,1,.6.15h103.74a.75.75,0,0,1,.58-.15.78.78,0,0,1,.59.15h103.74a.75.75,0,0,1,.58-.15.77.77,0,0,1,.59.15h103.74a.76.76,0,0,1,.58-.15.8.8,0,0,1,.6.15h103.36a.76.76,0,0,1,.58-.15.8.8,0,0,1,.6.15h103.74a.73.73,0,0,1,.57-.15.8.8,0,0,1,.6.15H2787.5a.75.75,0,0,1,.58-.15.77.77,0,0,1,.59.15h103.74a.75.75,0,0,1,.58-.15.77.77,0,0,1,.59.15h103a.75.75,0,0,1,.58-.15.8.8,0,0,1,.6.15h103.73a.76.76,0,0,1,.58-.15.8.8,0,0,1,.6.15h106.47a.73.73,0,0,1,.57-.15.8.8,0,0,1,.6.15h103.74a.75.75,0,0,1,.58-.15.77.77,0,0,1,.59.15H3419a.75.75,0,0,1,.58-.15.77.77,0,0,1,.59.15h103.74a.76.76,0,0,1,.58-.15.8.8,0,0,1,.6.15h103.36a.76.76,0,0,1,.58-.15.8.8,0,0,1,.6.15h10.26Zm-1897-1V207L1838,296.36Zm99-3.23-95.58-89.77h95.58Zm6,3.23v-88.7l94.43,88.7Zm98-3.23-95.58-89.77h95.58Zm6,3.23V207L2047,296.36Zm99-3.23-95.58-89.77h95.58Zm6,3.23V207L2152,296.36Zm99-3.23-95.58-89.77h95.58Zm6,3.23V207L2257,296.36Zm99-3.23-95.58-89.77h95.58Zm6,3.23V207L2362,296.36Zm99-3.23-95.58-89.77h95.58Zm6,3.23V207L2467,296.36Zm99-3.23-95.58-89.77h95.58Zm6,3.23V207.31l94.8,89.05Zm99-3.23-95.58-89.77h95.58Zm5,3.23V207L2676,296.36Zm100-3.23-95.58-89.77h95.58Zm5,3.23V207L2781,296.36Zm99-3.23-95.58-89.77h95.58Zm6,3.23V207L2886,296.36Zm99-3.23-95.58-89.77h95.58Zm6,3.23v-88.7l94.43,88.7Zm99-3.23-95.58-89.77h95.58Zm5,3.23V207L3095,296.36Zm99-3.23-95.58-89.77h95.58Zm6,3.23V207L3200,296.36Zm102-3.23-95.58-89.77h95.58Zm6,3.23V207L3308,296.36Zm99-3.23-95.58-89.77h95.58Zm6,3.23V207L3413,296.36Zm99-3.23-95.58-89.77h95.58Zm5,3.23V207L3517,296.36Zm100-3.23-95.58-89.77h95.58Zm5,3.23V207.31l94.8,89.05Zm99-3.23-95.58-89.77h95.58Z"/><rect width="324" height="155" x="250" y="202" fill="#26294d"/><circle cx="290.5" cy="242.5" r="25.5" fill="#b3edff"/><circle cx="371.5" cy="242.5" r="25.5" fill="#b3edff"/><circle cx="452.5" cy="242.5" r="25.5" fill="#b3edff"/><circle cx="533.5" cy="242.5" r="25.5" fill="#b3edff"/><circle cx="290.5" cy="318.5" r="25.5" fill="#b3edff" transform="rotate(-5.65 290.818 318.765)"/><circle cx="371.5" cy="318.5" r="25.5" fill="#b3edff" transform="rotate(-5.65 371.871 318.803)"/><circle cx="452.5" cy="318.5" r="25.5" fill="#b3edff" transform="rotate(-5.65 452.93 318.74)"/><circle cx="533.5" cy="318.5" r="25.5" fill="#b3edff" transform="rotate(-5.65 533.983 318.778)"/><rect width="324" height="155" x="906" y="202" fill="#26294d"/><circle cx="946.5" cy="242.5" r="25.5" fill="#b3edff"/><circle cx="1027.5" cy="242.5" r="25.5" fill="#b3edff"/><circle cx="1108.5" cy="242.5" r="25.5" fill="#b3edff"/><circle cx="1189.5" cy="242.5" r="25.5" fill="#b3edff"/><circle cx="946.5" cy="318.5" r="25.5" fill="#b3edff" transform="rotate(-5.65 947.386 318.762)"/><circle cx="1027.5" cy="318.5" r="25.5" fill="#b3edff" transform="rotate(-5.65 1028.444 318.699)"/><circle cx="1108.5" cy="318.5" r="25.5" fill="#b3edff" transform="rotate(-5.65 1109.497 318.737)"/><circle cx="1189.5" cy="318.5" r="25.5" fill="#b3edff" transform="rotate(-5.65 1190.55 318.775)"/><rect width="324" height="155" x="1231" y="202" fill="#26294d"/><circle cx="1272.5" cy="242.5" r="25.5" fill="#b3edff"/><circle cx="1352.5" cy="242.5" r="25.5" fill="#b3edff"/><circle cx="1433.5" cy="242.5" r="25.5" fill="#b3edff"/><circle cx="1514.5" cy="242.5" r="25.5" fill="#b3edff"/><circle cx="1272.5" cy="318.5" r="25.5" fill="#b3edff" transform="rotate(-5.65 1273.64 318.71)"/><circle cx="1352.5" cy="318.5" r="25.5" fill="#b3edff" transform="rotate(-5.65 1353.68 318.7)"/><circle cx="1433.5" cy="318.5" r="25.5" fill="#b3edff" transform="rotate(-5.65 1434.734 318.737)"/><circle cx="1514.5" cy="318.5" r="25.5" fill="#b3edff" transform="rotate(-5.65 1515.793 318.674)"/><rect width="324" height="155" x="1556" y="202" fill="#26294d"/><circle cx="1597.5" cy="242.5" r="25.5" fill="#b3edff"/><circle cx="1677.5" cy="242.5" r="25.5" fill="#b3edff"/><circle cx="1758.5" cy="242.5" r="25.5" fill="#b3edff"/><circle cx="1839.5" cy="242.5" r="25.5" fill="#b3edff"/><circle cx="1597.5" cy="318.5" r="25.5" fill="#b3edff" transform="rotate(-5.65 1598.877 318.711)"/><circle cx="1677.5" cy="318.5" r="25.5" fill="#b3edff" transform="rotate(-5.65 1679.019 318.705)"/><circle cx="1758.5" cy="318.5" r="25.5" fill="#b3edff" transform="rotate(-5.65 1760.072 318.743)"/><circle cx="1839.5" cy="318.5" r="25.5" fill="#b3edff" transform="rotate(-5.65 1841.13 318.68)"/><rect width="324" height="155" x="1881" y="202" fill="#26294d"/><circle cx="1922.5" cy="242.5" r="25.5" fill="#b3edff"/><circle cx="2003.5" cy="242.5" r="25.5" fill="#b3edff"/><circle cx="2083.5" cy="242.5" r="25.5" fill="#b3edff"/><circle cx="2164.5" cy="242.5" r="25.5" fill="#b3edff"/><circle cx="1922.5" cy="318.5" r="25.5" fill="#b3edff" transform="rotate(-5.65 1924.215 318.717)"/><circle cx="2003.5" cy="318.5" r="25.5" fill="#b3edff" transform="rotate(-5.65 2005.274 318.654)"/><circle cx="2083.5" cy="318.5" r="25.5" fill="#b3edff" transform="rotate(-5.65 2085.314 318.642)"/><circle cx="2164.5" cy="318.5" r="25.5" fill="#b3edff" transform="rotate(-5.65 2166.367 318.68)"/><rect width="324" height="155" x="2433" y="202" fill="#26294d"/><circle cx="2473.5" cy="242.5" r="25.5" fill="#b3edff"/><circle cx="2554.5" cy="242.5" r="25.5" fill="#b3edff"/><circle cx="2635.5" cy="242.5" r="25.5" fill="#b3edff"/><circle cx="2715.5" cy="242.5" r="25.5" fill="#b3edff"/><circle cx="2473.5" cy="318.5" r="25.5" fill="#b3edff" transform="rotate(-5.65 2475.656 318.706)"/><circle cx="2554.5" cy="318.5" r="25.5" fill="#b3edff" transform="rotate(-5.65 2556.714 318.643)"/><circle cx="2635.5" cy="318.5" r="25.5" fill="#b3edff" transform="rotate(-5.65 2637.869 318.687)"/><circle cx="2715.5" cy="318.5" r="25.5" fill="#b3edff" transform="rotate(-5.65 2717.909 318.675)"/><g opacity=".5"><g mask="url(#E)"><polygon points="1541.13 1094 855.89 -94.26 781.87 -89.7 938.5 1094 1541.13 1094" style="mix-blend-mode:screen" fill="url(#m)" opacity=".85"/></g><g mask="url(#F)"><polygon points="1343.27 1103 2028.52 -85.26 2102.54 -80.7 1945.9 1103 1343.27 1103" style="mix-blend-mode:screen" fill="url(#G)" opacity=".85"/></g><g mask="url(#H)"><polygon points="2115.21 1103 2800.45 -85.26 2874.48 -80.7 2717.84 1103 2115.21 1103" style="mix-blend-mode:screen" fill="url(#I)" opacity=".5"/></g><g mask="url(#J)"><polygon points="-66.35 1111 618.9 -77.26 692.92 -72.7 536.28 1111 -66.35 1111" style="mix-blend-mode:screen" fill="url(#K)" opacity=".15"/></g><g mask="url(#L)"><polygon points="930.19 1094 244.95 -94.26 170.92 -89.7 327.56 1094 930.19 1094" style="mix-blend-mode:screen" fill="url(#M)" opacity=".5"/></g><g mask="url(#N)"><polygon points="2938.89 1094 2253.64 -94.26 2179.62 -89.7 2336.26 1094 2938.89 1094" style="mix-blend-mode:screen" fill="url(#O)" opacity=".15"/></g></g></g><g clip-path="url(#D)" data-name="Layer 8"><rect width="3000" height="306.06" y="1193.94" fill="url(#z)"/><path fill="#161616" d="M549.91,1528.88c-.28-.54-6.76-13.4-7.88-32.3-1-17.45,2.56-43.48,25.54-68.41,30.45-33.05,113.36-38.87,193.54-44.51,81.73-5.74,166.25-11.68,177.24-48.07,12.73-42.1-31.29-57.62-111.2-85.79-8.17-2.88-16.6-5.85-25.42-9-31.49-11.28-45.62-20.79-44.45-29.94,1.73-13.52,37.85-17.43,45.07-18.08l.45,5c-16.3,1.46-39.66,6.69-40.56,13.74-.36,2.83,2.93,10.89,41.18,24.59,8.8,3.16,17.23,6.13,25.39,9,40.35,14.23,72.21,25.46,92.25,38.75,22,14.57,28.8,31,22.08,53.2-12,39.7-94.42,45.49-181.68,51.62-79.21,5.57-161.11,11.32-190.21,42.91-17.44,18.92-25.59,40.63-24.24,64.51a84.55,84.55,0,0,0,7.35,30.53Z"/><path fill="#161616" d="M1338.5,1541.9c-.67-.13-68-13.41-138.46-37.15-95.19-32-150.67-67-164.88-103.71-7.11-18.38-3.7-37.13,10.13-55.71,45.85-61.61,118.7-98.25,171.74-118.14,57.37-21.52,104.61-28.62,105.08-28.69l.73,5c-.47.07-47.27,7.11-104.16,28.46-52.38,19.65-124.28,55.8-169.38,116.41-12.74,17.11-15.92,34.24-9.48,50.92,13.46,34.81,69.42,69.66,161.81,100.77,70.21,23.64,137.17,36.85,137.83,37Z"/><path fill="#161616" d="M1716.54,1647.09c-.25-.9-6-22.47-3.46-54.19,2.32-29.26,12.43-72.89,47.49-114.62,38.35-45.65,130.84-62.27,220.28-78.34,95.19-17.1,185.09-33.25,186-82.86.48-24.62-13.35-46.06-41.08-63.72-22.58-14.38-54.29-26.3-94.26-35.41-68.32-15.58-137.85-17.54-138.54-17.56l.13-5c.7,0,70.66,2,139.46,17.67,40.54,9.24,72.8,21.37,95.87,36.06,29.32,18.67,43.93,41.57,43.42,68.05-1,53.71-92.89,70.22-190.15,87.69-88.57,15.92-180.16,32.37-217.34,76.64-34.15,40.65-44,83.11-46.31,111.58-2.48,30.92,3.22,52.49,3.28,52.71Z"/><path fill="#161616" d="M2094.33,1488a141.21,141.21,0,0,1-34.91-4.45c-32.66-8.28-65.85-28.26-98.65-59.38-26.12-24.8-52.08-56.69-77.15-94.81-42.64-64.82-68.31-126.06-68.56-126.67l4.62-1.93c.25.61,25.76,61.49,68.16,125.92,39,59.25,100.61,133.72,172.81,152,45.55,11.55,90.62-.36,134-35.38,35.67-28.83,47.2-65.37,57.37-97.6,9.18-29.1,17.85-56.59,42.95-71.71,27.27-16.42,71.7-16.76,139.83-1.08l-1.12,4.88c-66.79-15.38-110-15.22-136.13.49-23.48,14.14-31.49,39.53-40.76,68.92-10.39,32.91-22.16,70.21-59,100C2164.18,1474.3,2129.52,1488,2094.33,1488Z"/><path fill="#161616" d="M2617.32,1565l-4.87-1.13c.27-1.14,6.74-28.24,32.39-58.11a193.21,193.21,0,0,1,55.09-43.93c26.83-14.52,58.4-24.16,93.84-28.67,71.76-9.14,127.42-27.94,165.42-55.89,33-24.23,51.94-54.63,56.4-90.34l5,.62c-4.64,37.13-24.28,68.67-58.39,93.75-38.7,28.46-95.15,47.57-167.76,56.82-78.61,10-122.56,44-145.58,70.68C2623.87,1537.74,2617.39,1564.71,2617.32,1565Z"/><rect width="3000" height="11.98" y="1193.94" fill="#b3edff"/><rect width="1141.02" height="590.24" x="929.14" y="473.51" fill="#fff" rx="30.01"/><rect width="1137.1" height="590.24" x="930.85" y="477.21" fill="url(#P)" rx="29.95"/><rect width="1079.36" height="539.68" x="959.25" y="504.45" fill="url(#A)"/><rect width="297.9" height="131.48" x="996.88" y="883.72" rx="8.4" style="mix-blend-mode:soft-light" fill="#fff"/><path d="M1830,535.45v170H2007.5v-170Zm84.86,32.17-12,20.73-12-20.73Zm64.38,30.22h-72.79v42.07h70.6v49.58h-7.19V647.1h-25.1v35.58h-79.68v-7.19h72.48V647.1h-72.25V562h7.2v78h26.74V590.65h72.8V558.12h7.19Z" style="mix-blend-mode:soft-light" fill="#fff"/><path d="M1268.92,1006.59H1016.77a10.9,10.9,0,0,1-10.91-10.91h0a10.91,10.91,0,0,1,10.91-10.92h252.15a10.91,10.91,0,0,1,10.91,10.92h0A10.9,10.9,0,0,1,1268.92,1006.59Z" style="mix-blend-mode:soft-light" fill="#fff"/><g style="mix-blend-mode:soft-light"><circle cx="1053.22" cy="596.08" r="53.01" fill="#fff"/><circle cx="1130.56" cy="564.63" r="19.2" fill="#fff"/><circle cx="1138.64" cy="615.61" r="19.2" fill="#fff"/><circle cx="1109.36" cy="655.99" r="19.2" fill="#fff"/><circle cx="1062.42" cy="679.21" r="19.2" fill="#fff" transform="rotate(-80.78 1062.46 679.202)"/></g><rect width="385.29" height="86.82" x="1382.23" y="926.99" rx="7.94" style="mix-blend-mode:soft-light" fill="#fff"/><rect width="29.43" height="29.43" x="1396.35" y="939.16" style="mix-blend-mode:soft-light" fill="#fff"/><rect width="29.43" height="29.43" x="1431" y="939.16" style="mix-blend-mode:soft-light" fill="#fff"/><rect width="29.43" height="29.43" x="1467.5" y="939.16" style="mix-blend-mode:soft-light" fill="#fff"/><rect width="29.43" height="29.43" x="1504" y="939.16" style="mix-blend-mode:soft-light" fill="#fff"/><rect width="29.43" height="29.43" x="1540.5" y="939.16" style="mix-blend-mode:soft-light" fill="#fff"/><rect width="29.43" height="29.43" x="1577" y="939.16" style="mix-blend-mode:soft-light" fill="#fff"/><rect width="29.43" height="29.43" x="1613.5" y="939.16" style="mix-blend-mode:soft-light" fill="#fff"/><rect width="29.43" height="29.43" x="1650" y="939.16" style="mix-blend-mode:soft-light" fill="#fff"/><rect width="29.43" height="29.43" x="1686.5" y="939.16" style="mix-blend-mode:soft-light" fill="#fff"/><rect width="29.43" height="29.43" x="1724.84" y="939.16" style="mix-blend-mode:soft-light" fill="#fff"/><rect width="29.43" height="29.43" x="1396.35" y="974.91" style="mix-blend-mode:soft-light" fill="#fff"/><rect width="29.43" height="29.43" x="1431" y="974.91" style="mix-blend-mode:soft-light" fill="#fff"/><rect width="29.43" height="29.43" x="1467.5" y="974.91" style="mix-blend-mode:soft-light" fill="#fff"/><rect width="29.43" height="29.43" x="1504" y="974.91" style="mix-blend-mode:soft-light" fill="#fff"/><rect width="29.43" height="29.43" x="1540.5" y="974.91" style="mix-blend-mode:soft-light" fill="#fff"/><rect width="29.43" height="29.43" x="1577" y="974.91" style="mix-blend-mode:soft-light" fill="#fff"/><rect width="29.43" height="29.43" x="1613.5" y="974.91" style="mix-blend-mode:soft-light" fill="#fff"/><rect width="29.43" height="29.43" x="1650" y="974.91" style="mix-blend-mode:soft-light" fill="#fff"/><rect width="29.43" height="29.43" x="1686.5" y="974.91" style="mix-blend-mode:soft-light" fill="#fff"/><rect width="29.43" height="29.43" x="1724.84" y="974.91" style="mix-blend-mode:soft-light" fill="#fff"/><rect width="42.55" height="42.56" x="1211.91" y="532.85" style="mix-blend-mode:soft-light" fill="#fff"/><rect width="42.56" height="42.56" x="1266.67" y="532.85" style="mix-blend-mode:soft-light" fill="#fff"/><rect width="42.56" height="42.56" x="1321.42" y="532.85" style="mix-blend-mode:soft-light" fill="#fff"/><rect width="42.56" height="42.56" x="1376.18" y="532.85" style="mix-blend-mode:soft-light" fill="#fff"/><rect width="42.55" height="42.56" x="1430.94" y="532.85" style="mix-blend-mode:soft-light" fill="#fff"/><rect width="42.56" height="42.56" x="1485.7" y="532.85" style="mix-blend-mode:soft-light" fill="#fff"/><rect width="42.56" height="42.56" x="1540.45" y="532.85" style="mix-blend-mode:soft-light" fill="#fff"/><rect width="42.56" height="42.56" x="1595.21" y="532.85" style="mix-blend-mode:soft-light" fill="#fff"/><rect width="42.56" height="42.56" x="1649.97" y="532.85" style="mix-blend-mode:soft-light" fill="#fff"/><rect width="42.56" height="42.56" x="1704.73" y="532.85" style="mix-blend-mode:soft-light" fill="#fff"/><rect width="42.56" height="42.56" x="1759.48" y="532.85" style="mix-blend-mode:soft-light" fill="#fff"/><rect width="177.47" height="200.07" x="1830.03" y="722.24" style="mix-blend-mode:soft-light" fill="#fff"/><rect width="29.52" height="29.52" x="1842.78" y="737.3" style="mix-blend-mode:soft-light" fill="#fff"/><rect width="29.52" height="29.52" x="1883.44" y="737.3" style="mix-blend-mode:soft-light" fill="#fff"/><rect width="29.52" height="29.52" x="1924.1" y="737.3" style="mix-blend-mode:soft-light" fill="#fff"/><rect width="29.52" height="29.52" x="1964.75" y="737.3" style="mix-blend-mode:soft-light" fill="#fff"/><rect width="29.52" height="29.52" x="1842.78" y="777.96" style="mix-blend-mode:soft-light" fill="#fff"/><rect width="29.52" height="29.52" x="1883.44" y="777.96" style="mix-blend-mode:soft-light" fill="#fff"/><rect width="29.52" height="29.52" x="1924.1" y="777.96" style="mix-blend-mode:soft-light" fill="#fff"/><rect width="29.52" height="29.52" x="1964.75" y="777.96" style="mix-blend-mode:soft-light" fill="#fff"/><rect width="29.52" height="29.52" x="1842.78" y="818.62" style="mix-blend-mode:soft-light" fill="#fff"/><rect width="29.52" height="29.52" x="1883.44" y="818.62" style="mix-blend-mode:soft-light" fill="#fff"/><rect width="29.52" height="29.52" x="1924.1" y="818.62" style="mix-blend-mode:soft-light" fill="#fff"/><rect width="29.52" height="29.52" x="1964.75" y="818.62" style="mix-blend-mode:soft-light" fill="#fff"/><rect width="29.52" height="29.52" x="1842.78" y="859.27" style="mix-blend-mode:soft-light" fill="#fff"/><rect width="29.52" height="29.52" x="1883.44" y="859.27" style="mix-blend-mode:soft-light" fill="#fff"/><rect width="29.52" height="29.52" x="1924.1" y="859.27" style="mix-blend-mode:soft-light" fill="#fff"/><path d="M1123.06,921.91H1013.62a2.88,2.88,0,0,1-2.88-2.88h0a2.88,2.88,0,0,1,2.88-2.88h109.44a2.88,2.88,0,0,1,2.88,2.88h0A2.88,2.88,0,0,1,1123.06,921.91Z" style="mix-blend-mode:soft-light" fill="#fff"/><path d="M1164,934.38H1013.62a2.88,2.88,0,0,1-2.88-2.88h0a2.88,2.88,0,0,1,2.88-2.88H1164a2.88,2.88,0,0,1,2.88,2.88h0A2.88,2.88,0,0,1,1164,934.38Z" style="mix-blend-mode:soft-light" fill="#fff"/><path d="M1123.06,948.05H1013.62a2.88,2.88,0,0,1-2.88-2.88h0a2.88,2.88,0,0,1,2.88-2.88h109.44a2.88,2.88,0,0,1,2.88,2.88h0A2.88,2.88,0,0,1,1123.06,948.05Z" style="mix-blend-mode:soft-light" fill="#fff"/><path d="M1153.76,960.51H1013.62a2.87,2.87,0,0,1-2.88-2.88h0a2.88,2.88,0,0,1,2.88-2.88h140.14a2.88,2.88,0,0,1,2.88,2.88h0A2.87,2.87,0,0,1,1153.76,960.51Z" style="mix-blend-mode:soft-light" fill="#fff"/><path d="M1144,974.52H1013.62a2.88,2.88,0,0,1-2.88-2.88h0a2.88,2.88,0,0,1,2.88-2.88H1144a2.88,2.88,0,0,1,2.88,2.88h0A2.88,2.88,0,0,1,1144,974.52Z" style="mix-blend-mode:soft-light" fill="#fff"/><rect width="167.71" height="212.34" x="1207.6" y="638.16" rx="19.61" style="mix-blend-mode:soft-light" fill="#fff"/><rect width="136.25" height="14.62" x="1222.47" y="662.14" style="mix-blend-mode:soft-light" fill="#fff"/><rect width="136.25" height="14.62" x="1222.47" y="694.04" style="mix-blend-mode:soft-light" fill="#fff"/><rect width="136.25" height="14.62" x="1222.47" y="725.94" style="mix-blend-mode:soft-light" fill="#fff"/><rect width="136.25" height="14.62" x="1222.47" y="757.84" style="mix-blend-mode:soft-light" fill="#fff"/><rect width="136.25" height="14.62" x="1222.47" y="789.74" style="mix-blend-mode:soft-light" fill="#fff"/><rect width="167.71" height="212.34" x="1623.34" y="638.16" rx="19.61" style="mix-blend-mode:soft-light" fill="#fff"/><rect width="37.17" height="37.17" x="1645.12" y="664.26" style="mix-blend-mode:soft-light" fill="#fff"/><rect width="37.17" height="37.17" x="1688.96" y="664.26" style="mix-blend-mode:soft-light" fill="#fff"/><rect width="37.17" height="37.17" x="1732.8" y="664.26" style="mix-blend-mode:soft-light" fill="#fff"/><rect width="37.17" height="37.17" x="1645.12" y="707.04" style="mix-blend-mode:soft-light" fill="#fff"/><rect width="37.17" height="37.17" x="1688.96" y="707.04" style="mix-blend-mode:soft-light" fill="#fff"/><rect width="37.17" height="37.17" x="1732.8" y="707.04" style="mix-blend-mode:soft-light" fill="#fff"/><rect width="37.17" height="37.17" x="1645.12" y="749.82" style="mix-blend-mode:soft-light" fill="#fff"/><rect width="37.17" height="37.17" x="1688.96" y="749.82" style="mix-blend-mode:soft-light" fill="#fff"/><rect width="37.17" height="37.17" x="1732.8" y="749.82" style="mix-blend-mode:soft-light" fill="#fff"/><rect width="37.17" height="37.17" x="1645.12" y="792.6" style="mix-blend-mode:soft-light" fill="#fff"/><rect width="37.17" height="37.17" x="1688.96" y="792.6" style="mix-blend-mode:soft-light" fill="#fff"/><rect width="37.17" height="37.17" x="1732.8" y="792.6" style="mix-blend-mode:soft-light" fill="#fff"/><rect width="1141.02" height="590.24" x="-225.45" y="473.51" fill="#fff" rx="30.01"/><rect width="1137.1" height="590.24" x="-223.74" y="477.21" fill="url(#Q)" rx="29.95"/><rect width="1079.36" height="539.68" x="-195.34" y="504.45" fill="url(#R)"/><rect width="297.9" height="131.48" x="-157.71" y="883.72" rx="8.4" style="mix-blend-mode:soft-light" fill="#fff"/><path d="M675.44,535.45v170H852.92v-170Zm84.87,32.17-12,20.73-12-20.73Zm64.38,30.22h-72.8v42.07H822.5v49.58h-7.2V647.1H790.2v35.58H710.52v-7.19H783V647.1H710.75V562H718v78h26.74V590.65h72.8V558.12h7.2Z" style="mix-blend-mode:soft-light" fill="#fff"/><path d="M114.33,1006.59H-137.81a10.91,10.91,0,0,1-10.92-10.91h0a10.92,10.92,0,0,1,10.92-10.92H114.33a10.92,10.92,0,0,1,10.92,10.92h0A10.91,10.91,0,0,1,114.33,1006.59Z" style="mix-blend-mode:soft-light" fill="#fff"/><circle cx="-15.95" cy="615.61" r="19.2" fill="#fff"/><rect width="385.29" height="86.82" x="227.64" y="926.99" rx="7.94" style="mix-blend-mode:soft-light" fill="#fff"/><rect width="29.43" height="29.43" x="241.76" y="939.16" style="mix-blend-mode:soft-light" fill="#fff"/><rect width="29.43" height="29.43" x="276.42" y="939.16" style="mix-blend-mode:soft-light" fill="#fff"/><rect width="29.43" height="29.43" x="312.91" y="939.16" style="mix-blend-mode:soft-light" fill="#fff"/><rect width="29.43" height="29.43" x="349.41" y="939.16" style="mix-blend-mode:soft-light" fill="#fff"/><rect width="29.43" height="29.43" x="385.91" y="939.16" style="mix-blend-mode:soft-light" fill="#fff"/><rect width="29.43" height="29.43" x="422.41" y="939.16" style="mix-blend-mode:soft-light" fill="#fff"/><rect width="29.43" height="29.43" x="458.91" y="939.16" style="mix-blend-mode:soft-light" fill="#fff"/><rect width="29.43" height="29.43" x="495.41" y="939.16" style="mix-blend-mode:soft-light" fill="#fff"/><rect width="29.43" height="29.43" x="531.91" y="939.16" style="mix-blend-mode:soft-light" fill="#fff"/><rect width="29.43" height="29.43" x="570.25" y="939.16" style="mix-blend-mode:soft-light" fill="#fff"/><rect width="29.43" height="29.43" x="241.76" y="974.91" style="mix-blend-mode:soft-light" fill="#fff"/><rect width="29.43" height="29.43" x="276.42" y="974.91" style="mix-blend-mode:soft-light" fill="#fff"/><rect width="29.43" height="29.43" x="312.91" y="974.91" style="mix-blend-mode:soft-light" fill="#fff"/><rect width="29.43" height="29.43" x="349.41" y="974.91" style="mix-blend-mode:soft-light" fill="#fff"/><rect width="29.43" height="29.43" x="385.91" y="974.91" style="mix-blend-mode:soft-light" fill="#fff"/><rect width="29.43" height="29.43" x="422.41" y="974.91" style="mix-blend-mode:soft-light" fill="#fff"/><rect width="29.43" height="29.43" x="458.91" y="974.91" style="mix-blend-mode:soft-light" fill="#fff"/><rect width="29.43" height="29.43" x="495.41" y="974.91" style="mix-blend-mode:soft-light" fill="#fff"/><rect width="29.43" height="29.43" x="531.91" y="974.91" style="mix-blend-mode:soft-light" fill="#fff"/><rect width="29.43" height="29.43" x="570.25" y="974.91" style="mix-blend-mode:soft-light" fill="#fff"/><rect width="42.56" height="42.56" x="57.32" y="532.85" style="mix-blend-mode:soft-light" fill="#fff"/><rect width="42.55" height="42.56" x="112.08" y="532.85" style="mix-blend-mode:soft-light" fill="#fff"/><rect width="42.55" height="42.56" x="166.83" y="532.85" style="mix-blend-mode:soft-light" fill="#fff"/><rect width="42.55" height="42.56" x="221.59" y="532.85" style="mix-blend-mode:soft-light" fill="#fff"/><rect width="42.55" height="42.56" x="276.35" y="532.85" style="mix-blend-mode:soft-light" fill="#fff"/><rect width="42.56" height="42.56" x="331.11" y="532.85" style="mix-blend-mode:soft-light" fill="#fff"/><rect width="42.56" height="42.56" x="385.86" y="532.85" style="mix-blend-mode:soft-light" fill="#fff"/><rect width="42.55" height="42.56" x="440.62" y="532.85" style="mix-blend-mode:soft-light" fill="#fff"/><rect width="42.56" height="42.56" x="495.38" y="532.85" style="mix-blend-mode:soft-light" fill="#fff"/><rect width="42.56" height="42.56" x="550.14" y="532.85" style="mix-blend-mode:soft-light" fill="#fff"/><rect width="42.56" height="42.56" x="604.89" y="532.85" style="mix-blend-mode:soft-light" fill="#fff"/><rect width="177.47" height="200.07" x="675.44" y="722.24" style="mix-blend-mode:soft-light" fill="#fff"/><rect width="29.52" height="29.52" x="688.2" y="737.3" style="mix-blend-mode:soft-light" fill="#fff"/><rect width="29.52" height="29.52" x="728.85" y="737.3" style="mix-blend-mode:soft-light" fill="#fff"/><rect width="29.52" height="29.52" x="769.51" y="737.3" style="mix-blend-mode:soft-light" fill="#fff"/><rect width="29.52" height="29.52" x="810.17" y="737.3" style="mix-blend-mode:soft-light" fill="#fff"/><rect width="29.52" height="29.52" x="688.2" y="777.96" style="mix-blend-mode:soft-light" fill="#fff"/><rect width="29.52" height="29.52" x="728.85" y="777.96" style="mix-blend-mode:soft-light" fill="#fff"/><rect width="29.52" height="29.52" x="769.51" y="777.96" style="mix-blend-mode:soft-light" fill="#fff"/><rect width="29.52" height="29.52" x="810.17" y="777.96" style="mix-blend-mode:soft-light" fill="#fff"/><rect width="29.52" height="29.52" x="688.2" y="818.62" style="mix-blend-mode:soft-light" fill="#fff"/><rect width="29.52" height="29.52" x="728.85" y="818.62" style="mix-blend-mode:soft-light" fill="#fff"/><rect width="29.52" height="29.52" x="769.51" y="818.62" style="mix-blend-mode:soft-light" fill="#fff"/><rect width="29.52" height="29.52" x="810.17" y="818.62" style="mix-blend-mode:soft-light" fill="#fff"/><rect width="29.52" height="29.52" x="688.2" y="859.27" style="mix-blend-mode:soft-light" fill="#fff"/><rect width="29.52" height="29.52" x="728.85" y="859.27" style="mix-blend-mode:soft-light" fill="#fff"/><rect width="29.52" height="29.52" x="769.51" y="859.27" style="mix-blend-mode:soft-light" fill="#fff"/><path d="M9.44,934.38H-141a2.88,2.88,0,0,1-2.88-2.88h0a2.88,2.88,0,0,1,2.88-2.88H9.44a2.88,2.88,0,0,1,2.88,2.88h0A2.88,2.88,0,0,1,9.44,934.38Z" style="mix-blend-mode:soft-light" fill="#fff"/><path d="M-.82,960.51H-141a2.87,2.87,0,0,1-2.88-2.88h0a2.88,2.88,0,0,1,2.88-2.88H-.82a2.88,2.88,0,0,1,2.88,2.88h0A2.87,2.87,0,0,1-.82,960.51Z" style="mix-blend-mode:soft-light" fill="#fff"/><rect width="167.71" height="212.34" x="53.01" y="638.16" rx="19.61" style="mix-blend-mode:soft-light" fill="#fff"/><rect width="136.25" height="14.62" x="67.88" y="662.14" style="mix-blend-mode:soft-light" fill="#fff"/><rect width="136.25" height="14.62" x="67.88" y="694.04" style="mix-blend-mode:soft-light" fill="#fff"/><rect width="136.25" height="14.62" x="67.88" y="725.94" style="mix-blend-mode:soft-light" fill="#fff"/><rect width="136.25" height="14.62" x="67.88" y="757.84" style="mix-blend-mode:soft-light" fill="#fff"/><rect width="136.25" height="14.62" x="67.88" y="789.74" style="mix-blend-mode:soft-light" fill="#fff"/><rect width="167.71" height="212.34" x="468.75" y="638.16" rx="19.61" style="mix-blend-mode:soft-light" fill="#fff"/><rect width="37.17" height="37.17" x="490.54" y="664.26" style="mix-blend-mode:soft-light" fill="#fff"/><rect width="37.17" height="37.17" x="534.37" y="664.26" style="mix-blend-mode:soft-light" fill="#fff"/><rect width="37.17" height="37.17" x="578.21" y="664.26" style="mix-blend-mode:soft-light" fill="#fff"/><rect width="37.17" height="37.17" x="490.54" y="707.04" style="mix-blend-mode:soft-light" fill="#fff"/><rect width="37.17" height="37.17" x="534.37" y="707.04" style="mix-blend-mode:soft-light" fill="#fff"/><rect width="37.17" height="37.17" x="578.21" y="707.04" style="mix-blend-mode:soft-light" fill="#fff"/><rect width="37.17" height="37.17" x="490.54" y="749.82" style="mix-blend-mode:soft-light" fill="#fff"/><rect width="37.17" height="37.17" x="534.37" y="749.82" style="mix-blend-mode:soft-light" fill="#fff"/><rect width="37.17" height="37.17" x="578.21" y="749.82" style="mix-blend-mode:soft-light" fill="#fff"/><rect width="37.17" height="37.17" x="490.54" y="792.6" style="mix-blend-mode:soft-light" fill="#fff"/><rect width="37.17" height="37.17" x="534.37" y="792.6" style="mix-blend-mode:soft-light" fill="#fff"/><rect width="37.17" height="37.17" x="578.21" y="792.6" style="mix-blend-mode:soft-light" fill="#fff"/><rect width="1141.02" height="590.24" x="2085.84" y="473.51" fill="#fff" rx="30.01"/><rect width="1137.1" height="590.24" x="2087.54" y="477.21" fill="url(#S)" rx="29.95"/><rect width="1079.36" height="539.68" x="2115.95" y="504.45" fill="url(#T)"/><rect width="297.9" height="131.48" x="2153.57" y="883.72" rx="8.4" style="mix-blend-mode:soft-light" fill="#fff"/><path d="M2986.73,535.45v170H3164.2v-170Zm84.86,32.17-12,20.73-12-20.73ZM3136,597.84h-72.8v42.07h70.61v49.58h-7.19V647.1h-25.1v35.58H3021.8v-7.19h72.49V647.1H3022V562h7.19v78H3056V590.65h72.8V558.12H3136Z" style="mix-blend-mode:soft-light" fill="#fff"/><path d="M2425.62,1006.59H2173.47a10.9,10.9,0,0,1-10.91-10.91h0a10.91,10.91,0,0,1,10.91-10.92h252.15a10.91,10.91,0,0,1,10.91,10.92h0A10.9,10.9,0,0,1,2425.62,1006.59Z" style="mix-blend-mode:soft-light" fill="#fff"/><g style="mix-blend-mode:soft-light"><circle cx="2209.92" cy="596.08" r="53.01" fill="#fff"/><circle cx="2287.26" cy="564.63" r="19.2" fill="#fff"/><circle cx="2295.34" cy="615.61" r="19.2" fill="#fff"/><circle cx="2266.06" cy="655.99" r="19.2" fill="#fff"/><circle cx="2219.12" cy="679.21" r="19.2" fill="#fff" transform="rotate(-80.78 2219.19 679.173)"/></g><rect width="385.29" height="86.82" x="2538.93" y="926.99" rx="7.94" style="mix-blend-mode:soft-light" fill="#fff"/><rect width="29.43" height="29.43" x="2553.04" y="939.16" style="mix-blend-mode:soft-light" fill="#fff"/><rect width="29.43" height="29.43" x="2587.7" y="939.16" style="mix-blend-mode:soft-light" fill="#fff"/><rect width="29.43" height="29.43" x="2624.2" y="939.16" style="mix-blend-mode:soft-light" fill="#fff"/><rect width="29.43" height="29.43" x="2660.7" y="939.16" style="mix-blend-mode:soft-light" fill="#fff"/><rect width="29.43" height="29.43" x="2697.2" y="939.16" style="mix-blend-mode:soft-light" fill="#fff"/><rect width="29.43" height="29.43" x="2733.7" y="939.16" style="mix-blend-mode:soft-light" fill="#fff"/><rect width="29.43" height="29.43" x="2770.2" y="939.16" style="mix-blend-mode:soft-light" fill="#fff"/><rect width="29.43" height="29.43" x="2806.7" y="939.16" style="mix-blend-mode:soft-light" fill="#fff"/><rect width="29.43" height="29.43" x="2843.2" y="939.16" style="mix-blend-mode:soft-light" fill="#fff"/><rect width="29.43" height="29.43" x="2881.54" y="939.16" style="mix-blend-mode:soft-light" fill="#fff"/><rect width="29.43" height="29.43" x="2553.04" y="974.91" style="mix-blend-mode:soft-light" fill="#fff"/><rect width="29.43" height="29.43" x="2587.7" y="974.91" style="mix-blend-mode:soft-light" fill="#fff"/><rect width="29.43" height="29.43" x="2624.2" y="974.91" style="mix-blend-mode:soft-light" fill="#fff"/><rect width="29.43" height="29.43" x="2660.7" y="974.91" style="mix-blend-mode:soft-light" fill="#fff"/><rect width="29.43" height="29.43" x="2697.2" y="974.91" style="mix-blend-mode:soft-light" fill="#fff"/><rect width="29.43" height="29.43" x="2733.7" y="974.91" style="mix-blend-mode:soft-light" fill="#fff"/><rect width="29.43" height="29.43" x="2770.2" y="974.91" style="mix-blend-mode:soft-light" fill="#fff"/><rect width="29.43" height="29.43" x="2806.7" y="974.91" style="mix-blend-mode:soft-light" fill="#fff"/><rect width="29.43" height="29.43" x="2843.2" y="974.91" style="mix-blend-mode:soft-light" fill="#fff"/><rect width="29.43" height="29.43" x="2881.54" y="974.91" style="mix-blend-mode:soft-light" fill="#fff"/><rect width="42.56" height="42.56" x="2368.61" y="532.85" style="mix-blend-mode:soft-light" fill="#fff"/><rect width="42.56" height="42.56" x="2423.36" y="532.85" style="mix-blend-mode:soft-light" fill="#fff"/><rect width="42.56" height="42.56" x="2478.12" y="532.85" style="mix-blend-mode:soft-light" fill="#fff"/><rect width="42.56" height="42.56" x="2532.88" y="532.85" style="mix-blend-mode:soft-light" fill="#fff"/><rect width="42.56" height="42.56" x="2587.64" y="532.85" style="mix-blend-mode:soft-light" fill="#fff"/><rect width="42.56" height="42.56" x="2642.39" y="532.85" style="mix-blend-mode:soft-light" fill="#fff"/><rect width="42.56" height="42.56" x="2697.15" y="532.85" style="mix-blend-mode:soft-light" fill="#fff"/><rect width="42.56" height="42.56" x="2751.91" y="532.85" style="mix-blend-mode:soft-light" fill="#fff"/><rect width="42.56" height="42.56" x="2806.67" y="532.85" style="mix-blend-mode:soft-light" fill="#fff"/><rect width="42.56" height="42.56" x="2861.42" y="532.85" style="mix-blend-mode:soft-light" fill="#fff"/><rect width="42.56" height="42.56" x="2916.18" y="532.85" style="mix-blend-mode:soft-light" fill="#fff"/><rect width="177.47" height="200.07" x="2986.73" y="722.24" style="mix-blend-mode:soft-light" fill="#fff"/><rect width="29.52" height="29.52" x="2999.48" y="737.3" style="mix-blend-mode:soft-light" fill="#fff"/><rect width="29.52" height="29.52" x="2999.48" y="777.96" style="mix-blend-mode:soft-light" fill="#fff"/><rect width="29.52" height="29.52" x="2999.48" y="818.62" style="mix-blend-mode:soft-light" fill="#fff"/><rect width="29.52" height="29.52" x="2999.48" y="859.27" style="mix-blend-mode:soft-light" fill="#fff"/><path d="M2279.76,921.91H2170.32a2.88,2.88,0,0,1-2.88-2.88h0a2.88,2.88,0,0,1,2.88-2.88h109.44a2.88,2.88,0,0,1,2.88,2.88h0A2.88,2.88,0,0,1,2279.76,921.91Z" style="mix-blend-mode:soft-light" fill="#fff"/><path d="M2320.73,934.38H2170.32a2.88,2.88,0,0,1-2.88-2.88h0a2.88,2.88,0,0,1,2.88-2.88h150.41a2.88,2.88,0,0,1,2.88,2.88h0A2.88,2.88,0,0,1,2320.73,934.38Z" style="mix-blend-mode:soft-light" fill="#fff"/><path d="M2279.76,948.05H2170.32a2.88,2.88,0,0,1-2.88-2.88h0a2.88,2.88,0,0,1,2.88-2.88h109.44a2.88,2.88,0,0,1,2.88,2.88h0A2.88,2.88,0,0,1,2279.76,948.05Z" style="mix-blend-mode:soft-light" fill="#fff"/><path d="M2310.46,960.51H2170.32a2.87,2.87,0,0,1-2.88-2.88h0a2.88,2.88,0,0,1,2.88-2.88h140.14a2.88,2.88,0,0,1,2.88,2.88h0A2.87,2.87,0,0,1,2310.46,960.51Z" style="mix-blend-mode:soft-light" fill="#fff"/><path d="M2300.66,974.52H2170.32a2.88,2.88,0,0,1-2.88-2.88h0a2.88,2.88,0,0,1,2.88-2.88h130.34a2.88,2.88,0,0,1,2.88,2.88h0A2.88,2.88,0,0,1,2300.66,974.52Z" style="mix-blend-mode:soft-light" fill="#fff"/><rect width="167.71" height="212.34" x="2364.3" y="638.16" rx="19.61" style="mix-blend-mode:soft-light" fill="#fff"/><rect width="136.25" height="14.62" x="2379.17" y="662.14" style="mix-blend-mode:soft-light" fill="#fff"/><rect width="136.25" height="14.62" x="2379.17" y="694.04" style="mix-blend-mode:soft-light" fill="#fff"/><rect width="136.25" height="14.62" x="2379.17" y="725.94" style="mix-blend-mode:soft-light" fill="#fff"/><rect width="136.25" height="14.62" x="2379.17" y="757.84" style="mix-blend-mode:soft-light" fill="#fff"/><rect width="136.25" height="14.62" x="2379.17" y="789.74" style="mix-blend-mode:soft-light" fill="#fff"/><rect width="167.71" height="212.34" x="2780.03" y="638.16" rx="19.61" style="mix-blend-mode:soft-light" fill="#fff"/><rect width="37.17" height="37.17" x="2801.82" y="664.26" style="mix-blend-mode:soft-light" fill="#fff"/><rect width="37.17" height="37.17" x="2845.66" y="664.26" style="mix-blend-mode:soft-light" fill="#fff"/><rect width="37.17" height="37.17" x="2889.5" y="664.26" style="mix-blend-mode:soft-light" fill="#fff"/><rect width="37.17" height="37.17" x="2801.82" y="707.04" style="mix-blend-mode:soft-light" fill="#fff"/><rect width="37.17" height="37.17" x="2845.66" y="707.04" style="mix-blend-mode:soft-light" fill="#fff"/><rect width="37.17" height="37.17" x="2889.5" y="707.04" style="mix-blend-mode:soft-light" fill="#fff"/><rect width="37.17" height="37.17" x="2801.82" y="749.82" style="mix-blend-mode:soft-light" fill="#fff"/><rect width="37.17" height="37.17" x="2845.66" y="749.82" style="mix-blend-mode:soft-light" fill="#fff"/><rect width="37.17" height="37.17" x="2889.5" y="749.82" style="mix-blend-mode:soft-light" fill="#fff"/><rect width="37.17" height="37.17" x="2801.82" y="792.6" style="mix-blend-mode:soft-light" fill="#fff"/><rect width="37.17" height="37.17" x="2845.66" y="792.6" style="mix-blend-mode:soft-light" fill="#fff"/><rect width="37.17" height="37.17" x="2889.5" y="792.6" style="mix-blend-mode:soft-light" fill="#fff"/><rect width="123.71" height="230.77" x="283.14" y="1062.29" fill="#161616"/><path fill="url(#B)" d="M598.28,1378.7H79.36a18.26,18.26,0,0,1-15.12-28.47l67-99.11a18.26,18.26,0,0,1,15.12-8h385a18.25,18.25,0,0,1,15.12,8l67,99.11A18.25,18.25,0,0,1,598.28,1378.7Z"/><path fill="#161616" d="M598.28,1370H79.36a18.25,18.25,0,0,1-15.12-28.46l67-99.11a18.25,18.25,0,0,1,15.12-8h385a18.23,18.23,0,0,1,15.12,8l67,99.11A18.24,18.24,0,0,1,598.28,1370Z"/><rect width="123.71" height="230.77" x="1459" y="1062.29" fill="#161616"/><path fill="url(#U)" d="M1774.14,1378.7H1255.23a18.25,18.25,0,0,1-15.12-28.47l67-99.11a18.25,18.25,0,0,1,15.12-8h385a18.25,18.25,0,0,1,15.12,8l67,99.11A18.25,18.25,0,0,1,1774.14,1378.7Z"/><path fill="#161616" d="M1774.14,1370H1255.23a18.24,18.24,0,0,1-15.12-28.46l67-99.11a18.23,18.23,0,0,1,15.12-8h385a18.23,18.23,0,0,1,15.12,8l67,99.11A18.24,18.24,0,0,1,1774.14,1370Z"/><rect width="123.71" height="230.77" x="2569.1" y="1062.29" fill="#161616"/><path fill="url(#V)" d="M2884.24,1378.7H2365.33a18.25,18.25,0,0,1-15.12-28.47l67-99.11a18.25,18.25,0,0,1,15.12-8h385a18.25,18.25,0,0,1,15.12,8l67,99.11A18.25,18.25,0,0,1,2884.24,1378.7Z"/><path fill="#161616" d="M2884.24,1370H2365.33a18.24,18.24,0,0,1-15.12-28.46l67-99.11a18.23,18.23,0,0,1,15.12-8h385a18.23,18.23,0,0,1,15.12,8l67,99.11A18.24,18.24,0,0,1,2884.24,1370Z"/></g><g clip-path="url(#D)" data-name="Layer 9"><path fill="#0e021a" d="M2211.06,1820.51,973.43,1800.94s35.92-148.44,85.09-292.06c39.21-114.57,86.87-226.08,131.44-256.73,41.44-28.49,93.35-48.57,148.65-62.56q16.22-4.11,32.77-7.53c69.24-14.39,141.52-20.27,203.75-22,61-2.86,142.15,5.84,215.33,19.89,14.94,2.86,29.56,6,43.6,9.21,44.88,10.41,83.92,22.55,109.3,34.69,41,19.61,115.74,135.88,176.09,274.43C2165.37,1603.74,2203,1722.06,2211.06,1820.51Z"/><path fill="#0e021a" d="M1850.06,1113.55l-16,75.66-2.67,12.6-6.07,28.69H1353.49l-11.77-32.35-3.11-8.56-22.82-62.75s8.38-4.73,23.87-11.5c39-17,122.88-47,231.31-47,111.86,0,210.67,24.63,254.73,37.52C1841.32,1110.45,1850.06,1113.55,1850.06,1113.55Z"/><path fill="#0e021a" d="M1827.83,907c0,17.78-2,38.22-5.67,59.42-2.5,14.52-5.79,29.4-9.73,44-1.33,5-2.75,9.9-4.24,14.78-3.39,11.15-7.16,22-11.24,32.34-8,20.13-17.17,38.11-27.18,51.82a303.65,303.65,0,0,1-53.12,56.41c-40,32.57-84.89,50.68-126.64,50.68-43.09,0-95.68-16.34-140.53-52.8a247.83,247.83,0,0,1-52-58.12c-7.23-11.19-13.69-26.48-19.4-43.92-3.82-11.64-7.3-24.23-10.45-37.21q-1.34-5.49-2.6-11.06c-5-22.3-9.15-45.22-12.34-65.91-2.31-15-4.15-28.86-5.51-40.46-4.71-40.12-3.11-76.22,3.36-108.33q1.28-6.39,2.83-12.58,1.69-6.83,3.7-13.4c13-42.8,35.16-77.42,62.28-103.92q3.9-3.82,7.93-7.41a232.53,232.53,0,0,1,49.82-33.9c55.28-27.9,117.28-31.34,163.76-10.65a122.63,122.63,0,0,1,36.82,24.89,111.86,111.86,0,0,1,13.13,15.65,116.13,116.13,0,0,1,27.8,1.82,94.95,94.95,0,0,1,40.56,18.27c27.2,21,44.2,56.3,54.47,96.66q1.39,5.48,2.63,11.08c2.38,10.76,4.31,21.81,5.87,33C1826.34,848,1827.83,878.63,1827.83,907Z"/><path fill="#0e021a" d="M1860.13,821.22l-8.62,1.06-1,.13a188.53,188.53,0,0,0-5.22-23.76c-1-3.73-2.26-7.81-3.7-12.17-1.24-3.76-2.64-7.73-4.23-11.88A264.07,264.07,0,0,0,1807,717.08a238.6,238.6,0,0,0-40-44.28,222.35,222.35,0,0,0-18.61-14.38q-45.69-31.7-107.55-41.63a371.22,371.22,0,0,0-58.86-4.47q-58.33,0-104.9,15.12A232.52,232.52,0,0,0,1410.74,661a219,219,0,0,0-50.33,51.68,243.51,243.51,0,0,0-34.54,73.81c-1,3.55-1.8,6.83-2.48,9.78-.2.84-.38,1.64-.55,2.42-2,9.1-2.56,14.62-2.58,14.78l-9.69-.93c.06-.65.58-5.7,2.25-13.85a251.05,251.05,0,0,1,39.35-91.23A228.06,228.06,0,0,1,1405.42,653,233,233,0,0,1,1434,635.26c41.15-21.68,91-32.68,148-32.68s107.29,11.47,149.14,34.08a241.84,241.84,0,0,1,28.56,18.11q7.1,5.21,13.78,10.93a246.11,246.11,0,0,1,41.7,46.14,277.28,277.28,0,0,1,40.22,86.81c.82,3.09,1.51,5.93,2.08,8.47C1859.38,815.42,1860.05,820.56,1860.13,821.22Z"/><polygon fill="#0e021a" points="1735.2 1429.81 1430.78 1429.81 1461.79 988.38 1704.19 988.38 1735.2 1429.81"/><path fill="#0e021a" d="M1352.71,798.65v205.26h-50.5c-23.34-66.62-24.12-135,0-205.26Z"/><path fill="#0e021a" d="M1376.52,797.44v207.68a25.61,25.61,0,0,1-25.51,25.52h-2.13a25.6,25.6,0,0,1-25.52-25.52V797.44a25.59,25.59,0,0,1,25.52-25.51H1351a25.58,25.58,0,0,1,25.51,25.51Z"/><path fill="#0e021a" d="M1872.66,1003.91h-50.5V798.65h50.5C1896.78,868.92,1896,937.29,1872.66,1003.91Z"/><path fill="#0e021a" d="M1851.51,797.44v207.68a25.6,25.6,0,0,1-25.52,25.52h-2.12a25.61,25.61,0,0,1-25.52-25.52V797.44a25.48,25.48,0,0,1,10.73-20.75,24.64,24.64,0,0,1,4.58-2.61,25.24,25.24,0,0,1,10.21-2.15H1826a25.27,25.27,0,0,1,11.33,2.67A25.59,25.59,0,0,1,1851.51,797.44Z"/><path fill="#0e021a" d="M1779.49,651.76a27.85,27.85,0,0,1-2,6.8A39.16,39.16,0,0,1,1767,672.8a24.53,24.53,0,0,1-7.85,4.62,13.87,13.87,0,0,1-4.9.8,11.16,11.16,0,0,1-6.38-2.14,262.94,262.94,0,0,0-29.28-16.93,343.75,343.75,0,0,0-40.93-17.47c-25.91-9.09-57.23-16.43-90.85-16.43-88.49,0-152.82,45.94-152.82,45.94-4,2.41-9.4,1-14.66-2.44A43.05,43.05,0,0,1,1405.42,653a31,31,0,0,1-1.59-3.7c-1.95-5.52-1.85-10.93,1.66-14.81,0,0,66-54.62,180.18-54.62a369.81,369.81,0,0,1,77,7.81,298.34,298.34,0,0,1,69.94,23.8c28.23,13.88,42.17,27.09,42.17,27.09C1779.05,641.61,1780.27,646.47,1779.49,651.76Z"/><path fill="#ff9a92" d="M1812.46,769.52c-10.37-38.45-27.1-71.92-53.27-92.1a95.86,95.86,0,0,0-16.38-10.22c.82,2,2.88,4.3,6.47,6.85a44.59,44.59,0,0,1,5,4.17C1774.88,697.75,1810.66,770.25,1812.46,769.52Z"/><path fill="#b3edff" d="M1872.66,798.65h-21.15v-1.21a25.59,25.59,0,0,0-14.19-22.84,25.27,25.27,0,0,0-11.33-2.67h-2.12a25.24,25.24,0,0,0-10.21,2.15l0-.11c-1.62.66-3.23,1.32-4.84,2l.29.72c2.57,6.37,4,10.26,4,10.26a23.58,23.58,0,0,1,3.19-1.79A33.45,33.45,0,0,1,1834,782a11.56,11.56,0,0,1,7.59,4.44c2.84,3.35,4.82,8,6.14,12.17a64.61,64.61,0,0,1,2.22,9.16l1.6-.15,6-.54,5.91-.54s15.34,41.11,16.57,89-15.78,94.25-15.78,94.25l-12.69-.24-7.12-.13a40.4,40.4,0,0,1-6.14,14.48c-2.8,3.9-6.76,7.3-12.27,8.22a24.7,24.7,0,0,1-13.55-1.7,36.6,36.6,0,0,1-12.38-8.63l-1.7,2.35-1.4,53.4c4.08-10.31,7.85-21.19,11.24-32.34a25.32,25.32,0,0,0,15.68,5.43H1826a25.6,25.6,0,0,0,25.52-25.52v-1.21h21.15C1896,937.29,1896.78,868.92,1872.66,798.65Z"/><path fill="#0e021a" d="M1334.31,1066.49c6.51,6.47,12.66,12.59,3.83,22.47.86-.17,1.71-.36,2.57-.55l2-.44c7-10.44-.61-18-6.3-23.61l-.91-.91c-13.51-13.51-22.73-59.82-23.13-70.33l-3,.11c.37,9.6,9.29,57.63,24,72.34Z"/><polygon fill="#0e021a" points="1306.06 1000.67 1314.92 1028.94 1321.04 1027.47 1317.45 998.14 1306.06 1000.67"/><path fill="#0e021a" d="M1344.68,1090.76h0a2.05,2.05,0,0,1-1.24,2.28c-6.91,2.3-10.38,3.41-17.33,5.53a1.43,1.43,0,0,1-1.87-1.13h0a1.92,1.92,0,0,1,1.28-2.1c6.92-2.22,10.37-3.38,17.25-5.78A1.46,1.46,0,0,1,1344.68,1090.76Z"/><path fill="#0e021a" d="M1347.08,1095.66h0a2,2,0,0,1-1.29,2.26c-7,2.17-10.44,3.21-17.43,5.2a1.42,1.42,0,0,1-1.84-1.17h0a1.93,1.93,0,0,1,1.32-2.1c7-2.08,10.43-3.17,17.36-5.44A1.46,1.46,0,0,1,1347.08,1095.66Z"/><path fill="#0e021a" d="M1349.38,1100.64h0a2.06,2.06,0,0,1-1.32,2.25c-7,2-10.51,3-17.54,4.86a1.43,1.43,0,0,1-1.82-1.22h0a1.94,1.94,0,0,1,1.36-2.08c7-2,10.5-3,17.47-5.1A1.44,1.44,0,0,1,1349.38,1100.64Z"/><path fill="#0e021a" d="M1351.59,1105.7h0a2.06,2.06,0,0,1-1.37,2.23c-7,1.9-10.57,2.8-17.64,4.52a1.44,1.44,0,0,1-1.79-1.27h0a2,2,0,0,1,1.4-2.06c7-1.81,10.56-2.77,17.57-4.76A1.46,1.46,0,0,1,1351.59,1105.7Z"/><path fill="#0e021a" d="M1353.69,1110.83h0a2.07,2.07,0,0,1-1.41,2.22c-7.08,1.76-10.62,2.6-17.72,4.18a1.44,1.44,0,0,1-1.77-1.32h0a2,2,0,0,1,1.44-2c7.08-1.68,10.61-2.57,17.66-4.43A1.46,1.46,0,0,1,1353.69,1110.83Z"/><path fill="#0e021a" d="M1355.69,1116h0a2.07,2.07,0,0,1-1.46,2.2c-7.11,1.63-10.67,2.39-17.8,3.84a1.44,1.44,0,0,1-1.74-1.36h0a2,2,0,0,1,1.48-2c7.11-1.54,10.66-2.36,17.75-4.08A1.45,1.45,0,0,1,1355.69,1116Z"/><path fill="#0e021a" d="M1357.59,1121.32h0a2.1,2.1,0,0,1-1.51,2.19c-7.14,1.49-10.71,2.18-17.87,3.49a1.45,1.45,0,0,1-1.72-1.41h0a2,2,0,0,1,1.53-2c7.14-1.4,10.7-2.15,17.82-3.74A1.48,1.48,0,0,1,1357.59,1121.32Z"/><path fill="#0e021a" d="M1359.38,1126.68h0a2.11,2.11,0,0,1-1.56,2.16c-7.17,1.35-10.75,2-17.94,3.15a1.44,1.44,0,0,1-1.68-1.45h0a2,2,0,0,1,1.56-2c7.17-1.27,10.75-2,17.9-3.4A1.48,1.48,0,0,1,1359.38,1126.68Z"/><path fill="#0e021a" d="M1361.05,1132.1h0a2.11,2.11,0,0,1-1.59,2.15c-7.2,1.21-10.8,1.77-18,2.8a1.45,1.45,0,0,1-1.65-1.49h0a2,2,0,0,1,1.61-2c7.19-1.13,10.78-1.74,18-3A1.47,1.47,0,0,1,1361.05,1132.1Z"/><path fill="#0e021a" d="M1362.62,1137.59h0a2.13,2.13,0,0,1-1.64,2.13c-7.22,1.08-10.83,1.57-18.06,2.45a1.44,1.44,0,0,1-1.62-1.53h0a2,2,0,0,1,1.64-2c7.22-1,10.82-1.53,18-2.7A1.48,1.48,0,0,1,1362.62,1137.59Z"/><path fill="#0e021a" d="M1364.07,1143.15h0a2.15,2.15,0,0,1-1.69,2.11c-7.24.93-10.86,1.36-18.1,2.1a1.44,1.44,0,0,1-1.59-1.57h0a2,2,0,0,1,1.69-1.94c7.23-.85,10.84-1.32,18.07-2.36A1.49,1.49,0,0,1,1364.07,1143.15Z"/><path fill="#0e021a" d="M1365.4,1148.77h0a2.16,2.16,0,0,1-1.73,2.09c-7.26.8-10.89,1.15-18.15,1.76A1.46,1.46,0,0,1,1344,1151h0a2,2,0,0,1,1.73-1.92c7.25-.71,10.87-1.11,18.12-2A1.49,1.49,0,0,1,1365.4,1148.77Z"/><path fill="#0e021a" d="M1366.62,1154.46h0a2.2,2.2,0,0,1-1.78,2.07c-7.27.65-10.91.93-18.18,1.4a1.46,1.46,0,0,1-1.52-1.66h0a2.07,2.07,0,0,1,1.77-1.9c7.26-.57,10.9-.9,18.16-1.66A1.5,1.5,0,0,1,1366.62,1154.46Z"/><path fill="#0e021a" d="M1367.71,1160.2h0a2.19,2.19,0,0,1-1.82,2c-7.28.52-10.93.73-18.21,1.06a1.46,1.46,0,0,1-1.48-1.71h0a2.07,2.07,0,0,1,1.81-1.87c7.27-.43,10.91-.69,18.19-1.31A1.49,1.49,0,0,1,1367.71,1160.2Z"/><path fill="#0e021a" d="M1368.68,1166h0a2.2,2.2,0,0,1-1.86,2c-7.3.38-10.94.52-18.23.71a1.47,1.47,0,0,1-1.45-1.74h0a2.08,2.08,0,0,1,1.85-1.86c7.29-.29,10.93-.48,18.22-1A1.5,1.5,0,0,1,1368.68,1166Z"/><path fill="#0e021a" d="M1396.77,1420.66c-37-33.79-54.36-66-53.14-98.59,1-27.56,15.18-49.49,26.55-67.1,7.69-11.91,13.76-21.32,13.06-28.36-1.5-15.14-12.45-26.43-21.24-35.51-7.88-8.13-14.1-14.56-8.5-20l2.09,2.16c-3.29,3.19.89,7.82,8.57,15.74,8.63,8.92,20.46,21.13,22.07,37.31.8,8.08-5.52,17.87-13.53,30.27-22.31,34.57-56,86.81,26.1,161.86Z"/><path fill="#fff" d="M1779.49,651.76a27.85,27.85,0,0,1-2,6.8c-1.11-4.16-4.34-10.94-13.39-19.51-15.54-14.72-103.49-54-192.66-53.17s-150.94,45-159.53,52.36a27,27,0,0,0-8.09,11.07c-1.95-5.52-1.85-10.93,1.66-14.81,0,0,66-54.62,180.18-54.62a369.81,369.81,0,0,1,77,7.81l69.94,23.8c28.23,13.88,42.17,27.09,42.17,27.09C1779.05,641.61,1780.27,646.47,1779.49,651.76Z"/><path fill="#b3edff" d="M1372.78,1185s-12.42,5-31.06,13.14c-43.19,19-119.73,55.24-152.21,87.25-46.49,45.82-98.37,223-98.37,223l-32.62.46c39.21-114.57,86.87-226.08,131.44-256.73,41.44-28.49,93.35-48.57,148.65-62.56l-22.82-62.75s8.38-4.73,23.87-11.5l31.72,66.72Z"/><path fill="#b3edff" d="M2119.45,1498.33l-1.19,9.29-47.84-.67s-51.88-177.2-98.37-223c-29.75-29.32-96.46-62.22-140.66-82.12-24.87-11.19-42.61-18.27-42.61-18.27l1.68-3.54,35.24-74.12c15.62,4.57,24.36,7.67,24.36,7.67l-16,75.66c44.88,10.41,83.92,22.55,109.3,34.69C1984.36,1243.51,2059.1,1359.78,2119.45,1498.33Z"/><path fill="#b3edff" d="M1365.05,1013.35a25,25,0,0,1-14.46,2.1c-7-1.17-11.54-6.39-14.33-11.54a42,42,0,0,1-4.07-11.16l-8.83.16-11,.21s-17-46.39-15.78-94.25,16.56-89,16.56-89l10.2.93,3.3.3a64.94,64.94,0,0,1,3.39-12.48c2.46-6.27,6.45-12.68,12.57-13.29a32.67,32.67,0,0,1,10.77.71,30.68,30.68,0,0,1,10.09,4.19s1.25-3.34,3.46-8.87q-7.47-4.65-14.87-9.41c-.36,0-.7-.05-1.06-.05h-2.13a25.59,25.59,0,0,0-25.52,25.51v1.21h-21.15c-24.12,70.27-23.34,138.64,0,205.26h21.15v1.21a25.6,25.6,0,0,0,25.52,25.52H1351a25.33,25.33,0,0,0,16.64-6.23c3.15,13,6.63,25.57,10.45,37.21l-1.58-56.5A36.72,36.72,0,0,1,1365.05,1013.35Z"/><path fill="#ff9a92" d="M1419.55,668.57c-26,25.42-47.54,58.3-60.75,98.71a3.83,3.83,0,0,1,.29-.28,33.42,33.42,0,0,1,4.44-3.6c4.63-3.23,46.39-73.73,63.76-86a29,29,0,0,0,3.86-3.19C1427.06,673.17,1422.67,671.52,1419.55,668.57Z"/><path fill="#0e021a" d="M1075.26,1875.25l-1237.63-19.57s74-305.74,154.93-464.2c20.45-40,41.34-70.66,61.6-84.59,40.43-27.8,90.83-47.59,144.63-61.54,79.84-20.7,167.17-28.52,240.53-30.5,67.42-3.16,159.42,7.8,238.08,24.47q8.37,1.77,16.52,3.63c46.7,10.63,87.45,23.16,113.64,35.69,39.46,18.87,110.16,127.27,169.22,258.9C1025.78,1646.74,1066.77,1771.93,1075.26,1875.25Z"/><path fill="#0e021a" d="M765.59,1185.32,693.92,1243l-21,16.93-11.43.07-437.17,2.58-25.48-17.18-69.43-46.81s52-27.44,125.27-50.46c52.94-16.63,117-31,180.54-31,53.46,0,110.33,8.49,161.55,19.48C690.66,1156.76,765.59,1185.32,765.59,1185.32Z"/><path fill="#b3edff" d="M54.16,1306.89c40.43-27.8,90.83-47.59,144.63-61.54l-1,2.59c-18.39-1.41-89.82,37.49-131.55,65.78S23.11,1388,23.11,1388s-25.33,17.7-30.55,3.5C13,1351.45,33.9,1320.82,54.16,1306.89Z"/><path fill="#b3edff" d="M168.1,1201.26l30.69,44.09-69.43-46.81s52-27.44,125.27-50.46a104.32,104.32,0,0,1,11.07,15C224,1170.85,168.1,1201.26,168.1,1201.26Z"/><path fill="#0e021a" d="M676.31,923.74c-4.58,34.42-18.38,77.07-36.35,114.1-2.59,5.33-5.26,10.54-8,15.59-10.74,19.79-22.58,37.16-34.62,49.63q-7,7.21-14.26,13.86-4.73,4.3-9.58,8.35c-46,38.49-99.54,59.64-146.91,59.64-33.15,0-73.19-8.74-111.18-28.59A243.39,243.39,0,0,1,243.76,1100c-30.36-35-57.84-125-71-176.24C87.13,591.16,450.58,476.81,548.93,643.54,635,639,669.15,704.22,679,781.66,685.05,828.82,682.06,880.51,676.31,923.74Z"/><polygon fill="#0e021a" points="602.84 1398.27 298.42 1398.27 315.41 1156.32 329.42 956.83 571.83 956.83 573.32 978.01 575.84 1013.9 580.98 1087.15 583.08 1116.92 584.11 1131.59 602.84 1398.27"/><path fill="#0e021a" d="M707,836.86l-10.6-.38c0-.58,1.7-58.86-28.79-119.14C626.85,636.8,551,591,442.08,581.06s-193.19,19.38-250.26,87c-42.66,50.54-53.37,104.84-53.48,105.38l-10.41-2c.43-2.31,11.19-57.21,55.47-109.88a249.08,249.08,0,0,1,95.83-70.23C326,571.9,381.11,564.88,443,570.5s114.47,23.1,156,51.94A240.55,240.55,0,0,1,677.25,713C708.81,775.64,707.06,834.39,707,836.86Z"/><path fill="#0e021a" d="M187.94,986,133,989.28C103.3,918.36,98,844.09,119.62,766.1l54.91-3.3Z"/><rect width="57.9" height="281.79" x="149.27" y="733.68" fill="#0e021a" rx="27.79" transform="rotate(-3.44 178.23 874.471)"/><path fill="#0e021a" d="M702.11,1034.45l-22.93-2.08-31.85-2.89,20.21-222.66,34.06,3.1,20.72,1.88C741.56,890.4,734,964.48,702.11,1034.45Z"/><path fill="#0e021a" d="M706.76,837.85l-14.61,160.9a59.56,59.56,0,0,1-10.76,29.15A60.32,60.32,0,0,1,632,1053.43c-1.69,0-3.39-.09-5.11-.25a57.25,57.25,0,0,1-6.32-.92,60.37,60.37,0,0,1-44.69-38.36,59.53,59.53,0,0,1-3.42-26l.9-9.88L587,827a60.32,60.32,0,0,1,59.86-54.68c1.8,0,3.61.08,5.44.25A59.53,59.53,0,0,1,679,781.66,60.27,60.27,0,0,1,706.76,837.85Z"/><path fill="#0e021a" d="M248.41,587.74c-14.33,13.22,12.92,49.73,27.34,42.61,0,0,74.31-43.5,170.3-34.79s169.7,71,169.7,71c16.2,14,49.08-24,32.88-38,0,0-61.43-69.78-199.39-82.3C325.43,535,248.41,587.74,248.41,587.74Z"/><path fill="#b3edff" d="M659.22,789.77s14.92,4.54,18.81,9.08c6.48-3.89,14.91-7.78,14.91-7.78s-16.86-9.73-18.8-10.38S659.22,789.77,659.22,789.77Z"/><path fill="#0e021a" d="M692.59,1073.75c6.51,6.47,12.66,12.59,3.83,22.47.86-.17,1.71-.36,2.57-.55l2-.45c7-10.43-.61-18-6.29-23.6l-.92-.91c-13.5-13.51-22.72-59.83-23.13-70.34l-3,.12c.37,9.6,9.29,57.62,24,72.34Z"/><polygon fill="#0e021a" points="672.43 1037.01 682.77 1064.78 688.8 1062.98 683.67 1033.88 672.43 1037.01"/><path fill="#0e021a" d="M703,1098h0a2,2,0,0,1-1.24,2.27c-6.91,2.31-10.37,3.41-17.32,5.54a1.44,1.44,0,0,1-1.87-1.13h0a1.93,1.93,0,0,1,1.28-2.11c6.92-2.22,10.37-3.37,17.25-5.77A1.45,1.45,0,0,1,703,1098Z"/><path fill="#0e021a" d="M705.36,1102.92h0a2,2,0,0,1-1.29,2.26c-7,2.17-10.44,3.21-17.43,5.2a1.44,1.44,0,0,1-1.85-1.18h0a1.93,1.93,0,0,1,1.32-2.09c7-2.08,10.44-3.17,17.36-5.44A1.46,1.46,0,0,1,705.36,1102.92Z"/><path fill="#0e021a" d="M707.66,1107.9h0a2.05,2.05,0,0,1-1.33,2.25c-7,2-10.5,3-17.53,4.85a1.43,1.43,0,0,1-1.82-1.22h0a1.92,1.92,0,0,1,1.36-2.07c7-2,10.5-3,17.46-5.11A1.46,1.46,0,0,1,707.66,1107.9Z"/><path fill="#0e021a" d="M709.87,1113h0a2.09,2.09,0,0,1-1.38,2.24c-7,1.9-10.56,2.8-17.63,4.52a1.43,1.43,0,0,1-1.79-1.27h0a1.94,1.94,0,0,1,1.4-2.06c7-1.82,10.56-2.77,17.57-4.77A1.47,1.47,0,0,1,709.87,1113Z"/><path fill="#0e021a" d="M712,1118.09h0a2.07,2.07,0,0,1-1.42,2.22c-7.07,1.76-10.62,2.59-17.72,4.17a1.42,1.42,0,0,1-1.76-1.31h0a2,2,0,0,1,1.44-2.05c7.08-1.67,10.61-2.56,17.66-4.42A1.46,1.46,0,0,1,712,1118.09Z"/><path fill="#0e021a" d="M714,1123.3h0a2.08,2.08,0,0,1-1.46,2.2c-7.11,1.62-10.67,2.39-17.8,3.83A1.44,1.44,0,0,1,693,1128h0a2,2,0,0,1,1.48-2c7.11-1.55,10.66-2.36,17.75-4.09A1.47,1.47,0,0,1,714,1123.3Z"/><path fill="#0e021a" d="M715.87,1128.58h0a2.1,2.1,0,0,1-1.51,2.18c-7.14,1.49-10.72,2.19-17.88,3.49a1.44,1.44,0,0,1-1.71-1.4h0a2,2,0,0,1,1.53-2c7.14-1.4,10.7-2.15,17.82-3.74A1.48,1.48,0,0,1,715.87,1128.58Z"/><path fill="#0e021a" d="M717.65,1133.93h0a2.1,2.1,0,0,1-1.55,2.17c-7.17,1.35-10.76,2-17.94,3.15a1.44,1.44,0,0,1-1.68-1.45h0a2,2,0,0,1,1.56-2c7.17-1.26,10.75-1.94,17.9-3.39A1.47,1.47,0,0,1,717.65,1133.93Z"/><path fill="#0e021a" d="M719.33,1139.36h0a2.14,2.14,0,0,1-1.6,2.15c-7.19,1.21-10.79,1.77-18,2.8a1.45,1.45,0,0,1-1.65-1.5h0a2,2,0,0,1,1.6-2c7.2-1.13,10.79-1.74,18-3A1.48,1.48,0,0,1,719.33,1139.36Z"/><path fill="#0e021a" d="M720.89,1144.85h0a2.12,2.12,0,0,1-1.64,2.13c-7.21,1.07-10.83,1.56-18,2.45a1.46,1.46,0,0,1-1.63-1.53h0a2,2,0,0,1,1.65-2c7.22-1,10.82-1.53,18-2.71A1.48,1.48,0,0,1,720.89,1144.85Z"/><path fill="#0e021a" d="M722.34,1150.41h0a2.14,2.14,0,0,1-1.68,2.11c-7.24.93-10.86,1.35-18.11,2.1A1.46,1.46,0,0,1,701,1153h0a2,2,0,0,1,1.69-1.93c7.24-.85,10.85-1.33,18.08-2.36A1.48,1.48,0,0,1,722.34,1150.41Z"/><path fill="#0e021a" d="M723.68,1156h0a2.16,2.16,0,0,1-1.73,2.09c-7.26.79-10.89,1.15-18.15,1.76a1.46,1.46,0,0,1-1.55-1.63h0a2,2,0,0,1,1.73-1.91c7.25-.71,10.87-1.11,18.12-2A1.49,1.49,0,0,1,723.68,1156Z"/><path fill="#0e021a" d="M724.89,1161.72h0a2.16,2.16,0,0,1-1.77,2.06c-7.27.66-10.91.94-18.18,1.41a1.46,1.46,0,0,1-1.52-1.66h0a2.06,2.06,0,0,1,1.77-1.9c7.26-.57,10.89-.9,18.16-1.66A1.49,1.49,0,0,1,724.89,1161.72Z"/><path fill="#0e021a" d="M726,1167.46h0a2.21,2.21,0,0,1-1.82,2c-7.29.51-10.93.73-18.21,1.06a1.46,1.46,0,0,1-1.48-1.71h0a2.06,2.06,0,0,1,1.81-1.87c7.27-.44,10.91-.7,18.19-1.31A1.49,1.49,0,0,1,726,1167.46Z"/><path fill="#0e021a" d="M727,1173.27h0a2.21,2.21,0,0,1-1.86,2c-7.3.38-11,.52-18.23.71a1.47,1.47,0,0,1-1.45-1.75h0a2.08,2.08,0,0,1,1.85-1.85c7.28-.29,10.93-.48,18.22-1A1.5,1.5,0,0,1,727,1173.27Z"/><path fill="#0e021a" d="M755.05,1427.92c-37-33.79-54.36-66-53.14-98.59,1-27.56,15.18-49.49,26.55-67.11,7.69-11.91,13.76-21.31,13.06-28.35-1.51-15.14-12.45-26.44-21.24-35.51-7.88-8.13-14.1-14.56-8.5-20l2.09,2.15c-3.29,3.19.89,7.83,8.56,15.75,8.64,8.91,20.47,21.12,22.08,37.3.8,8.08-5.52,17.88-13.53,30.28-22.31,34.57-56,86.81,26.09,161.85Z"/><path fill="#b3edff" d="M681.39,1027.9A60.32,60.32,0,0,1,632,1053.43c-10.74,19.79-22.58,37.16-34.62,49.63q-7,7.21-14.26,13.86l1,14.67L573.82,1133l-.32-7.71,1.44-17c2.6-1.26,58.88-69.52,58.88-69.52,6.26,7,43-11.76,39.81-17.39Z"/><path fill="#0e021a" d="M644.68,733.34A173.55,173.55,0,0,1,628,748.12s-5.44,56.9-10.16,110.7H201.77a748.23,748.23,0,0,1-18.55-115.6S118,711.59,148.94,660.31c24.45-40.48,89.74-27.78,89.74-27.78s-43.8-44.87,2.13-85.47c35.79-31.62,93.28-1.73,93.28-1.73a56,56,0,0,1,.23-31.57c4-12.6,14.07-26,37-34.07,42.6-15,69.32,15.77,78.1,28.31h0c2.12,3,3.2,5,3.2,5s6.8-42.79,43.39-52.7a62.82,62.82,0,0,1,20.27-1.91c39.14,2.3,71.23,37.26,63.26,78.64-.4,2.09-.91,4.21-1.52,6.34a38.78,38.78,0,0,1,7.58-10.69c29.07-29.25,105.14-19.69,114.88,62.61C708.14,660,668.38,709.85,644.68,733.34Z"/><path fill="#fff" d="M449.42,508c-9.84-3.34-52.32-17.15-77.18-15.77-16.65.92-30.45,13.24-37.92,21.53,4-12.6,14.07-26,37-34.07C413.92,464.7,440.64,495.46,449.42,508Z"/><path fill="#fff" d="M579.55,537c-1.12.93-1.71,1.5-1.71,1.5s-20.4-50.23-36.09-61.22c-10.91-7.63-29.4-14.88-45.73-17a62.82,62.82,0,0,1,20.27-1.91C555.43,460.69,587.52,495.65,579.55,537Z"/><path fill="#fff" d="M644.68,733.34c10-21.85,24.46-54.36,34.4-79.45,16.48-41.6-11-109.09-43.16-124.78-21.55-10.52-40.29-2.72-50.31,3.57,29.07-29.25,105.14-19.69,114.88,62.61C708.14,660,668.38,709.85,644.68,733.34Z"/><path fill="#b3edff" d="M976.78,1537.54l-33.67,6.29s-63.68-161.47-110.3-206.95S660,1261.83,660,1261.83l1.46-1.88,16-20.63,37.15-48L590.61,1159.5l6.11-22.9c93.94,20.16,168.87,48.72,168.87,48.72L693.92,1243c46.7,10.63,87.45,23.16,113.64,35.69C847,1297.51,917.72,1405.91,976.78,1537.54Z"/><path fill="#b3edff" d="M702.11,1034.45l-22.93-2.08c8.36-17.66,31.07-67.53,36.1-98.81,6.19-38.52-4.81-110.07-4.81-110.07l-8.26-1.37-.61-12.2,20.72,1.88C741.56,890.4,734,964.48,702.11,1034.45Z"/><path fill="#0e021a" d="M2575.71,1119.89c13.22-30.72,189.79-122,325.83-59.64s106.23,255.68,149.74,421.14c284.18,234.49,240.8,358.12,217,361l-70.8,5.1h-650.8L2540.27,1600S2468.06,1370.18,2575.71,1119.89Z"/><path fill="#0e021a" d="M3041.37,899.15c-18.46,105.35-198.43,153-291.55,18s-72.92-302.06-58.19-352.84a102.28,102.28,0,0,1,27.43-38.77c21.71-18.83,58.12-32.58,115.44-7.63,109.8,47.79,129.41,190.57,102.66,269.21-21.32,62.66,8,127.54,60.21,126.67C3010.69,913.55,3025.52,909.05,3041.37,899.15Z"/><path fill="#0e021a" d="M2823.07,701.74c1.83-1.93,23.49-42.51-14.84-106.79s-110.47-69.92-136-59.43,16.89,81.87,51.88,121.1S2812.89,712.45,2823.07,701.74Z"/><path fill="#0e021a" d="M2761.33,858.47c2-1.3,137.66-106.48,23.44-250.5S2405.66,520,2400.63,721.1,2689.84,904.28,2761.33,858.47Z"/><path fill="#0e021a" d="M2635.82,1165.53l211.95-62.85c-.18-.63-130.1-248.51-130.6-250.9C2707,859.14,2586,948,2579.1,952.62,2579.1,952.62,2616.23,1121.18,2635.82,1165.53Z"/><path fill="#0e021a" d="M2718.44,936c-19.81,63.84-45.18,105.14-84.66,141.12l-25.51-58.08Z"/><path fill="#0e021a" d="M2742.66,897.67c-40.42,89.15-119,150.68-188.92,160.44-23.18,3.23-45.4.77-64.93-8.28-27.67-12.83-54.52-38-71.57-71.11h0c-18.7-36.29-25.62-82.08-8.93-131.51-2.06-35.11-13.31-135.26-7.57-147.14a185.15,185.15,0,0,1,44.42-58.3c60.14-53.12,151.24-67.69,219.37-36.79C2763.83,650,2796.5,778.94,2742.66,897.67Z"/><path fill="#0e021a" d="M2455.09,954.09c7.34,3.39,19.27,13.28,30.86,23.81,16.82,15.29,32.88,31.93,32.88,31.93s66.49-20.08,79.2-76.38c-1,.66-2,1.29-3,1.91C2538.49,970,2455.09,954.09,2455.09,954.09Z"/><path fill="#0e021a" d="M2455.09,954.09c7.34,3.39,19.27,13.28,30.86,23.81,61.8,1.56,93.83-23.69,109.06-42.54C2538.49,970,2455.09,954.09,2455.09,954.09Z"/><path fill="#0e021a" d="M2452.86,931.53c11.55,2.21,24.12-.85,24.94-1.06a2.46,2.46,0,1,0-1.2-4.77c-.28.07-28.3,6.88-36.08-7.35-2.67-4.89,2.18-10.4,10.31-19,4.81-5.07,10.25-10.82,14.22-17.47,8.91-14.92,12.12-31.81,13.67-39.94.26-1.36.53-2.76.7-3.46l0-.07A2.45,2.45,0,0,0,2479,835a2.59,2.59,0,0,0-2.45-.36c-1.56.59-1.75,1.59-2.67,6.42-1.49,7.84-4.6,24.15-13.06,38.33-3.69,6.18-8.94,11.72-13.57,16.61-8.35,8.82-15.57,16.44-11.06,24.71C2439.74,927.17,2446.13,930.24,2452.86,931.53Z"/><ellipse cx="2568.98" cy="829.54" fill="#0e021a" rx="17.77" ry="9.79" transform="rotate(-79.18 2568.964 829.555)"/><path fill="#0e021a" d="M2424.21,808.22c-1.58,8.29.84,15.71,5.4,16.58s9.55-5.13,11.14-13.42-.84-15.71-5.4-16.58S2425.8,799.93,2424.21,808.22Z"/><circle cx="2760.95" cy="867.61" r="51.88" fill="#0e021a" transform="rotate(-16.28 2760.637 867.553)"/><path fill="#0e021a" d="M2769.54,814.07s-15.11,37.23-64.24,32.46c-43.37-9.55-55.85-66.3-66.54-153.8-11.69,17.6-55.48,48.38-109.25,55.31-66.85,8.6-135.52-25.47-150.83,35.29-.19.7-.35,1.4-.51,2.13a113.7,113.7,0,0,0-2.45,19.22,58,58,0,0,1-5-4.23c-50.4-47.14-28.79-189.47,99.32-245.81,27.85-12.25,60.75-20.43,99-22.69C2751.61,521.18,2810.57,690.12,2769.54,814.07Z"/><path fill="#ffecb3" d="M2997.37,913.77c-113.84,14.86-69.82-148.13-65.68-181.28,4.2-33.6,6.3-47.25-15.75-114.45s-88.2-103.95-126-103.95-61.94,23.1-61.94,23.1-4.14-4.94-8.94-11.67c21.71-18.83,58.12-32.58,115.44-7.63,109.8,47.79,129.41,190.57,102.66,269.21C2915.84,849.76,2945.13,914.64,2997.37,913.77Z"/><path fill="#ffecb3" d="M2470,554.64c-21,19.14-30.47,8.87-86.66,89.47s-6.84,134.94-4.65,139.22l.28.54-.79,1.59-7.5,15C2320.27,753.31,2341.88,611,2470,554.64Z"/><path fill="#0e021a" d="M2642,518.77c-62-7.13-138.71,4.46-181,60.41-.34.41-.64.83-1,1.25-10.26,13,.58,18.87.58,18.87l8.75-11.73.09,0c-28.69,37.58-45.57,84.54-55.47,125.4-38.78,13.87-69.73,52.9-76.26,102.2-8.11,61.25,24.29,117,73.94,131.43a87.86,87.86,0,0,0,13.33,2.81c.51.07,1,.14,1.54.19,1.44.26,2.9.49,4.36.69,2.58.34,5.16.56,7.72.68a90.16,90.16,0,0,0,16.81,3.9c57,7.55,110.28-40.26,119.09-106.78,8.79-66.28-29.93-126.12-86.55-134,6.14-29.93,16.22-64,32.76-94.6,1,.5,6.18,2.73,14.8-.9,1.44-.6,8-6.61,18-14.85l3.48-2.83,1.84-1.47c2.48-2,5.13-4,7.92-6.15l2.12-1.59q2.14-1.61,4.4-3.23t4.59-3.26c1.56-1.1,3.16-2.19,4.78-3.28s3.27-2.17,4.95-3.25,3.37-2.16,5.1-3.22,3.48-2.11,5.25-3.14c3.55-2.07,7.19-4.07,10.89-6q4.17-2.15,8.46-4.11c2.85-1.3,5.73-2.54,8.64-3.69q2.92-1.14,5.86-2.18c13.73-4.81,27.91-7.56,41.81-6.77,22.85-9.91,35.52-9.31,54.13-2.85C2711.93,534.35,2679.69,523.1,2642,518.77Zm-117.09,93.37-1.63,2.68c.54-.94,1.08-1.88,1.63-2.82Z"/><path fill="#0e021a" d="M2629.56,1495.83l-292,328.75-206.76,9.6,220.36-314.38,22.86-32.62s37.83-235.25,60.8-278.13c13.28-24.79,76.29-58.83,127.1-83.14h0c37.07-17.74,67.65-30.3,67.65-30.3C2718.15,1230,2629.56,1495.83,2629.56,1495.83Z"/><path fill="#0e021a" d="M2867.93,1076.38l-301.5,65.69-21.56-8.57-75.81-30.14s12.29-6.54,33.12-16.23c71.05-33.07,241.44-102.86,362.23-75.28Z"/><path fill="#0e021a" d="M2492.06,1239.45c-33.44-4-60-14.12-79.07-30-16.5-13.78-26.52-31.46-29-51.12-4.23-33.6,14.66-66.5,44.9-78.23,34.92-13.54,58.23-33.25,67.41-57,6.84-17.67,3.52-31.35,3.49-31.48l5.81-1.47c.16.63,3.82,15.68-3.7,35.11-6.84,17.69-24.68,42.53-70.84,60.42-27.71,10.75-45,41-41.12,71.89,5.08,40.4,43.52,68.78,102.83,75.92Z"/><path fill="#b3edff" d="M2642,518.77c-55.46-11.45-181.63,36.51-163.9,72,0,0-41.71,55.26-50,119.91-17.73,14.6-74,33.37-76.12,126.17-1.39,61.58,39.82,94.87,59.7,109.81-49.65-14.4-82.05-70.18-73.94-131.43,6.53-49.3,37.48-88.33,76.26-102.2,9.9-40.86,26.78-87.82,55.47-125.4l-.09,0-8.75,11.73s-10.84-5.91-.58-18.87c.32-.42.62-.84,1-1.25C2503.29,523.23,2580,511.64,2642,518.77Z"/><path fill="#b3edff" d="M2571.49,1127.24l-26.62,6.26-75.81-30.14s12.29-6.54,33.12-16.23C2522.31,1098.47,2571.49,1127.24,2571.49,1127.24Z"/><path fill="#b3edff" d="M2571.49,1127.24s-93,57.41-113.24,91.59-53,279.71-62.08,288.77c-4.57,4.57-25.45,9-45,12.2l22.86-32.62s37.83-235.25,60.8-278.13c13.28-24.79,76.29-58.83,127.1-83.14h0Z"/><path fill="#b3edff" d="M2553.74,1058.11c-23.18,3.23-45.4.77-64.93-8.28-27.67-12.83-54.52-38-71.57-71.11,10.84,13.83,38.69,51.35,70.37,64.67C2521.62,1057.68,2538.13,1058.43,2553.74,1058.11Z"/></g></g></svg>